<svg style="position: absolute; width: 0; height: 0; overflow: hidden;" version="1.1" xmlns="http://www.w3.org/2000/svg" xmlns:xlink="http://www.w3.org/1999/xlink">
<defs>
<symbol id="icon-icon" viewBox="0 0 32 32">
<title>icon</title>
<path class="path1" fill="#cfa98f" d="M25.771 17.109l-0.896-2.645c0-0.021-0.021-0.064-0.043-0.085 0 0 0 0 0-0.021-0.021-0.043-0.043-0.064-0.064-0.107 0 0-0.021-0.021-0.021-0.021-0.021-0.021-0.043-0.043-0.085-0.064 0 0 0 0-0.021-0.021l-8.32-4.928c-0.171-0.107-0.384-0.107-0.555 0l-7.701 4.715c0 0 0 0-0.021 0.021s-0.064 0.043-0.085 0.064c0 0-0.021 0.021-0.021 0.021-0.021 0.021-0.043 0.043-0.064 0.064 0 0-0.021 0.021-0.021 0.021s0 0 0 0.021l-1.173 2.389c-0.128 0.256-0.021 0.555 0.213 0.704l9.877 5.547c0.085 0.043 0.171 0.064 0.256 0.064 0.107 0 0.192-0.021 0.277-0.085l8.213-5.035c0.235-0.128 0.341-0.384 0.256-0.619zM16.043 10.304l7.296 4.352-6.443 3.968-7.509-4.245 6.656-4.075zM17.045 21.696l-9.173-5.141 0.704-1.429 8.064 4.587c0.085 0.043 0.171 0.064 0.256 0.064 0.107 0 0.192-0.021 0.277-0.085l6.891-4.245 0.533 1.6-7.552 4.651z"></path>
<path class="path2" fill="#cfa98f" d="M15.125 13.227l1.067-0.683 1.131 0.768c0.085 0.064 0.192 0.085 0.299 0.085 0.171 0 0.341-0.085 0.448-0.235 0.171-0.235 0.107-0.576-0.149-0.747l-1.408-0.96c-0.171-0.128-0.405-0.128-0.576 0l-1.365 0.853c-0.256 0.149-0.32 0.491-0.171 0.725 0.149 0.277 0.491 0.341 0.725 0.192z"></path>
<path class="path3" fill="#cfa98f" d="M17.899 17.067c0.171 0 0.341-0.085 0.448-0.235 0.171-0.235 0.107-0.576-0.149-0.747l-1.408-0.939c-0.171-0.107-0.405-0.128-0.576 0l-1.323 0.832c-0.256 0.149-0.32 0.491-0.171 0.725 0.149 0.256 0.491 0.32 0.725 0.171l1.045-0.64 1.131 0.768c0.085 0.043 0.171 0.064 0.277 0.064z"></path>
<path class="path4" fill="#cfa98f" d="M17.472 14.933c0.171 0.235 0.491 0.299 0.747 0.128l0.981-0.683 1.109 0.747c0.085 0.064 0.192 0.085 0.299 0.085 0.171 0 0.341-0.085 0.448-0.235 0.171-0.235 0.107-0.576-0.149-0.747l-1.408-0.96c-0.192-0.128-0.427-0.128-0.597 0l-1.28 0.896c-0.256 0.192-0.32 0.533-0.149 0.768z"></path>
<path class="path5" fill="#cfa98f" d="M15.296 14.997c0.171-0.235 0.107-0.576-0.149-0.747l-1.408-0.96c-0.171-0.107-0.405-0.128-0.576 0l-1.365 0.853c-0.256 0.149-0.32 0.491-0.171 0.725 0.149 0.256 0.491 0.32 0.725 0.171l1.067-0.661 1.131 0.768c0.085 0.064 0.192 0.085 0.299 0.085 0.171 0 0.341-0.085 0.448-0.235z"></path>
</symbol>
<symbol id="icon-nav-icon-close" viewBox="0 0 32 32">
<title>nav-icon-close</title>
<path class="path1" fill="#fff" d="M24.972 28.261l-21.125-21.125 3.173-3.173 21.125 21.125zM28.15 7.165l-21.125 21.125-3.173-3.173 21.125-21.125z"></path>
</symbol>
<symbol id="icon-nav-icon" viewBox="0 0 32 32">
<title>nav-icon</title>
<path class="path1" fill="#fff" d="M1.063 3.362h29.875v4.475h-29.875zM1.063 13.825h29.875v4.475h-29.875zM1.063 24.275h29.875v4.475h-29.875z"></path>
</symbol>
<symbol id="icon-placeholder-3by2" viewBox="0 0 48 32">
<title>placeholder-3by2</title>
<path class="path1" fill="#e2e2e2" d="M0.080 0.080h47.84v31.84h-47.84v-31.84z"></path>
<path class="path2" fill="#666" d="M47.84 0.16v31.68h-47.68v-31.68h47.68zM48 0h-48v32h48v-32z"></path>
</symbol>
<symbol id="icon-placeholder-circle" viewBox="0 0 32 32">
<title>placeholder-circle</title>
<path class="path1" fill="#e2e2e2" d="M16 31.625c-8.629 0-15.625-6.996-15.625-15.625s6.996-15.625 15.625-15.625c8.629 0 15.625 6.996 15.625 15.625-0.007 8.627-6.998 15.618-15.624 15.625z"></path>
<path class="path2" fill="#666" d="M16 0.625c0.002 0 0.004 0 0.006 0 8.491 0 15.375 6.884 15.375 15.375 0 4.247-1.722 8.092-4.506 10.875s-6.628 4.505-10.875 4.505c-8.494 0-15.38-6.886-15.38-15.38 0-4.247 1.721-8.092 4.505-10.875 2.767-2.78 6.596-4.5 10.827-4.5 0.017 0 0.034 0 0.050 0zM16 0.125c-8.768 0-15.875 7.107-15.875 15.875s7.107 15.875 15.875 15.875c8.768 0 15.875-7.107 15.875-15.875s-7.107-15.875-15.875-15.875v0z"></path>
<path class="path3" fill="none" stroke="#666" stroke-linejoin="miter" stroke-linecap="butt" stroke-miterlimit="10" stroke-width="0.5" d="M5 5.125l22.163 22.163"></path>
<path class="path4" fill="none" stroke="#666" stroke-linejoin="miter" stroke-linecap="butt" stroke-miterlimit="10" stroke-width="0.5" d="M26.913 5.088l-21.85 21.85"></path>
</symbol>
</defs>
</svg>
