<?xml version="1.0" encoding="utf-8"?>
<!-- Generator: Adobe Illustrator 21.0.0, SVG Export Plug-In . SVG Version: 6.00 Build 0)  -->
<svg version="1.1" id="Layer_1" xmlns="http://www.w3.org/2000/svg" xmlns:xlink="http://www.w3.org/1999/xlink" x="0px" y="0px"
	 viewBox="0 0 150 150" style="enable-background:new 0 0 150 150;" xml:space="preserve">
<style type="text/css">
	.st0{fill:#CFA98F;}
</style>
<g>
	<path class="st0" d="M120.8,80.2l-4.2-12.4c0-0.1-0.1-0.3-0.2-0.4c0,0,0,0,0-0.1c-0.1-0.2-0.2-0.3-0.3-0.5c0,0-0.1-0.1-0.1-0.1
		c-0.1-0.1-0.2-0.2-0.4-0.3c0,0,0,0-0.1-0.1L76.5,43.2c-0.8-0.5-1.8-0.5-2.6,0L37.8,65.3c0,0,0,0-0.1,0.1c-0.1,0.1-0.3,0.2-0.4,0.3
		c0,0-0.1,0.1-0.1,0.1c-0.1,0.1-0.2,0.2-0.3,0.3c0,0-0.1,0.1-0.1,0.1c0,0,0,0,0,0.1l-5.5,11.2c-0.6,1.2-0.1,2.6,1,3.3l46.3,26
		c0.4,0.2,0.8,0.3,1.2,0.3c0.5,0,0.9-0.1,1.3-0.4l38.5-23.6C120.7,82.5,121.2,81.3,120.8,80.2z M75.2,48.3l34.2,20.4L79.2,87.3
		L44,67.4L75.2,48.3z M79.9,101.7l-43-24.1l3.3-6.7L78,92.4c0.4,0.2,0.8,0.3,1.2,0.3c0.5,0,0.9-0.1,1.3-0.4l32.3-19.9l2.5,7.5
		L79.9,101.7z"/>
	<path class="st0" d="M70.9,62l5-3.2l5.3,3.6c0.4,0.3,0.9,0.4,1.4,0.4c0.8,0,1.6-0.4,2.1-1.1c0.8-1.1,0.5-2.7-0.7-3.5l-6.6-4.5
		c-0.8-0.6-1.9-0.6-2.7,0l-6.4,4c-1.2,0.7-1.5,2.3-0.8,3.4C68.2,62.4,69.8,62.7,70.9,62z"/>
	<path class="st0" d="M83.9,80c0.8,0,1.6-0.4,2.1-1.1c0.8-1.1,0.5-2.7-0.7-3.5L78.7,71c-0.8-0.5-1.9-0.6-2.7,0l-6.2,3.9
		c-1.2,0.7-1.5,2.3-0.8,3.4c0.7,1.2,2.3,1.5,3.4,0.8l4.9-3l5.3,3.6C83,79.9,83.4,80,83.9,80z"/>
	<path class="st0" d="M81.9,70c0.8,1.1,2.3,1.4,3.5,0.6l4.6-3.2l5.2,3.5c0.4,0.3,0.9,0.4,1.4,0.4c0.8,0,1.6-0.4,2.1-1.1
		c0.8-1.1,0.5-2.7-0.7-3.5l-6.6-4.5c-0.9-0.6-2-0.6-2.8,0l-6,4.2C81.4,67.3,81.1,68.9,81.9,70z"/>
	<path class="st0" d="M71.7,70.3c0.8-1.1,0.5-2.7-0.7-3.5l-6.6-4.5c-0.8-0.5-1.9-0.6-2.7,0l-6.4,4c-1.2,0.7-1.5,2.3-0.8,3.4
		c0.7,1.2,2.3,1.5,3.4,0.8l5-3.1l5.3,3.6c0.4,0.3,0.9,0.4,1.4,0.4C70.4,71.4,71.2,71,71.7,70.3z"/>
</g>
</svg>
