<svg xmlns="http://www.w3.org/2000/svg" width="256" height="256" viewBox="0 0 256 256"><title>placeholder</title><path d="M128,253A125,125,0,1,1,253,128,125.1,125.1,0,0,1,128,253Z" fill="#e2e2e2"/><path d="M128,5a123,123,0,0,1,87,210A123,123,0,1,1,41,41,122.2,122.2,0,0,1,128,5m0-4A127,127,0,1,0,255,128,127,127,0,0,0,128,1h0Z" fill="#666"/><line x1="40" y1="41" x2="217.3" y2="218.3" fill="none" stroke="#666" stroke-miterlimit="10" stroke-width="4"/><line x1="215.3" y1="40.7" x2="40.5" y2="215.5" fill="none" stroke="#666" stroke-miterlimit="10" stroke-width="4"/></svg>