<svg xmlns="http://www.w3.org/2000/svg" xmlns:xlink="http://www.w3.org/1999/xlink" version="1.1" x="0px" y="0px" viewBox="0 0 48 48" enable-background="new 0 0 48 48" xml:space="preserve"><g><g><path fill="#000000" d="M24,1C11.3,1,1,11.3,1,24c0,2,0.3,4,0.8,5.9l0,0L2,30.6c0,0,0,0,0,0l0.2,0.5l0,0C5.2,40.5,14.1,47,24,47    c12.2,0,22.2-9.5,22.9-21.6l0,0l0-0.4c0-0.1,0-0.2,0-0.3c0-0.2,0-0.4,0-0.6C47,11.3,36.7,1,24,1z M24,17.1c3.8,0,6.9,3.1,6.9,6.9    s-3.1,6.9-6.9,6.9s-6.9-3.1-6.9-6.9S20.2,17.1,24,17.1z M24,45.8c-9.3,0-17.7-6.1-20.6-14.8c0.3,0,0.6-0.1,0.8-0.1    c0,0,0.1,0,0.1,0c0.2,0,0.4,0,0.5,0c0.1,0,0.1,0,0.2,0c0.2,0,0.4,0,0.6,0c1.8,0.3,3.1,1.6,4.5,3c1,1,2.1,2.1,3.5,2.8    c1.8,0.9,3.9,1.1,5.7,1.2c0.7,0,1.3,0.1,2,0.1c1.4,0,2.6-0.2,3.5-0.6c0.7-0.3,1.3-0.7,1.8-1.1c0.6-0.4,1.1-0.8,1.7-1.1    c0.3-0.1,0.7-0.2,1.1-0.2c0.7,0,1.4,0.2,1.7,0.9c0.1,0.2,0.1,0.5,0.1,0.8c0,0.5,0,1,0.3,1.4c0,0.1,0.1,0.2,0.2,0.2    c0.1,0.1,0.1,0.1,0.2,0.2c0.4,0.4,0.9,0.6,1.5,0.6c0,0,0,0,0.1,0h0h0c0.3,0,0.6,0,0.8-0.1c0.9-0.3,1.6-1,2-1.6    c1.2-1.5,2-3.3,2.4-5.2c0.1-0.5,0.2-0.9,0.2-1.4c0.1-0.8,0.2-1.6,0.5-2.4c0.3-0.9,1.1-2,2.2-2.1c0.3,0,0.7,0,1.1,0    c0.2,0,0.5,0,0.7,0.1c0.2,0,0.4,0,0.5,0c0.1,0,0.1,0,0.2,0c0.1,0,0.2,0,0.3,0c0.1,0,0.2,0,0.2,0c0.1,0,0.2,0,0.3-0.1    c0.1,0,0.2-0.1,0.4-0.1c0.1,0,0.2,0,0.2-0.1c0,0,0.1,0,0.1,0C44.7,37.1,35.4,45.8,24,45.8z"></path></g></g></svg>