<svg xmlns="http://www.w3.org/2000/svg" xmlns:xlink="http://www.w3.org/1999/xlink" version="1.1" x="0px" y="0px" viewBox="0 0 100 100" enable-background="new 0 0 100 100" xml:space="preserve"><g><path d="M76.188,51.877c-2.879-6.614-7.426-12.287-14.65-14.221c3.492-1.936,7.756-5.453,7.518-9.898   c-0.066-1.254-0.475-2.452-0.608-3.695c-0.139-1.299,1.808-9.063,0.578-9.828c-1.194-0.744-3.825-0.81-5.229-0.887   c-2.209-0.122-3.748,0.851-5.53,2.013c-4.135,2.701-6.151-1.914-8.144-4.848c-1.104-1.629-3.808,1.181-4.825,1.766   c-1.33,0.763-2.81,1.248-4.26,0.517c-0.815-0.411-1.5-1.055-2.12-1.714c-0.584-0.622-1.252-1.968-2.239-1.945   c-2.401,0.056-2.086,3.287-2.057,4.78c0.057,2.829-0.04,5.658-0.254,8.479c-0.186,2.445-0.691,4.924-0.04,7.342   c1.122,4.158,4.77,7.083,8.542,8.798c-9.747,3.374-15.503,10.87-18.741,20.358c-2.539,7.443-3.878,15.393-5.153,23.141   c-0.236,1.433-0.504,3.029-0.188,4.472c0.437,1.976,3.621,2.191,5.245,2.41c6.046,0.819,12.19,1.348,18.276,1.771   c6.235,0.434,28.347,0.21,34.439-2.179c2.278-0.894,4.178-1.82,4.529-4.391C81.813,80.192,79.677,59.893,76.188,51.877z    M38.514,29.755c-1.315-2.634-0.733-6.669-0.388-8.542c0.074-0.418,0.152-0.83,0.228-1.236c0.215-1.165,0.215-2.361,0.15-3.54   c3.048,2.246,6.823-0.107,9.444-1.981c1.315,2.08,3.322,5.834,6.167,5.935c1.401,0.049,3.154-0.826,4.383-1.45   c0.825-0.419,1.603-0.926,2.348-1.476c-0.05,0.037,0.662-0.638,0.55-0.641c1.396,0.039,3.095,0.619,4.515,0.839   c-0.35,2.226-1.345,4.494-1.145,6.777c0.194,2.19,0.56,4.118-0.421,6.205c-1.731,3.684-6.066,5.162-9.845,5.521   c1.667-1.24,3.255-3.338,3.792-5.381c0.26-0.992,0.502-2.026,0.286-3.057c-0.401-1.919-1.388-0.185-1.684,0.687   c-0.616,1.816-1.675,3.596-2.821,5.114c-0.517,0.834-1.472,2.755-2.481,2.716c-0.407-0.016-0.813-0.041-1.218-0.079   c-0.226-0.626-0.489-1.241-0.739-1.858c-0.382-0.941-0.646-1.922-1.019-2.867c-1.044-2.048-1.522-4.905-1.959-7.139   c-0.228-1.162-0.435-2.335-0.688-3.49c-0.412-1.877-1.284-0.713-1.445,0.539c-0.328,2.551,0.181,5.305,0.912,7.733   c0.304,1.007,0.542,2.128,1.073,3.045c0.409,0.865,0.791,1.756,1.309,2.564c0.144,0.207,0.861,0.973,0.861,1.255   C44.822,35.297,40.365,33.464,38.514,29.755z M49.216,40.961c4.137-0.501,8.563-0.573,12.506,0.953   c6.204,2.402,10.228,9.076,12.592,15.606c0.244,0.82,0.438,1.653,0.649,2.481c-2.812-2.521-6.744-4.075-10.112-5.731   c-2.363-1.161-4.841-2.097-7.271-3.106c-2.458-1.021-4.907-2.065-7.38-3.052c-4.089-1.631-8.964-3.318-13.436-2.78   C40.434,42.801,44.824,41.492,49.216,40.961z M34.876,46.811c-0.169,0.094,0.01-0.084,1.138-0.94   c1.042,0.515,2.401,0.48,3.521,0.748c1.389,0.331,2.743,0.786,4.086,1.27c2.545,0.918,5.051,1.95,7.527,3.038   c2.763,1.214,5.522,2.419,8.311,3.573c3.48,1.442,7.024,2.773,10.441,4.354c1.122,0.52,2.258,1.011,3.378,1.536   c0.661,0.311,1.305,0.686,2.017,0.872c0.225,0.958,0.432,1.919,0.625,2.884c0.721,3.624,1.148,7.279,1.646,10.938   c-1.988-1.221-4.691-1.663-6.894-2.439c-2.063-0.727-4.113-1.484-6.174-2.217c-3.695-1.313-7.479-2.789-11.047-4.4   c-3.513-1.584-7.055-3.115-10.515-4.813c-2.538-1.245-5.091-2.455-7.593-3.77c-1.711-0.9-3.838-2.486-5.745-2.806   C30.696,51.63,32.497,48.934,34.876,46.811z M38.422,86.581c-3.04-0.336-6.078-0.672-9.118-1.008   c-1.519-0.167-3.038-0.336-4.559-0.504c-0.651-0.071-1.726,0.096-2.088-0.612c-0.693-1.347-0.191-3.466,0.029-4.864   c0.428-2.719,1.086-5.399,1.783-8.06c0.244,1.124,2.812,2.452,3.709,2.962c2.008,1.228,4.015,2.455,6.038,3.658   c3.288,1.956,6.86,3.674,10.407,5.113c3.814,1.55,7.642,2.911,11.597,4.05C50.286,87.492,44.323,87.233,38.422,86.581z    M77.091,84.683c0.402-0.922-0.235-5.811-2.208-4.352c-0.77,0.557,0.199,4.578,0.828,5.158c-0.799,0.268-1.636,0.419-2.467,0.542   c0.38-0.888,0.383-6.438-1.822-5.273c-0.776,0.399-0.35,1.916-0.243,2.606c0.087,0.57,0.08,1.11,0.127,1.685   c-0.043,0.408,0.068,0.808,0.021,1.214c-0.569,0.056-1.138,0.104-1.706,0.148c0.202-1.032,0.133-2.211-0.908-2.806   c-1.701-0.972-1.395,2.253-1.259,2.958c-0.556,0.034-1.109,0.069-1.665,0.105c0.112-0.951-1.186-3.946-2.319-2.303   c-0.317,0.461-0.023,1.098-0.087,1.607c-0.032,0.257,0.088,0.597,0.091,0.865c-0.809,0.071-1.446,0.185-2.233-0.039   c-3.989-1.136-7.873-2.698-11.744-4.184c-3.718-1.426-7.335-3.018-10.985-4.612c-2.752-1.203-5.4-2.67-8.094-4.001   c-0.676-0.334-1.352-0.669-2.04-0.975c-0.635-0.281-3.178-2.046-3.872-1.629c1.454-5.53,3.075-11.061,4.977-16.456   c1.283,1.92,4.028,3.171,5.939,4.359c2.342,1.454,4.745,2.807,7.179,4.104c3.273,1.746,6.676,3.255,10.033,4.838   c3.751,1.77,7.861,3.232,11.835,4.44c1.946,0.591,3.896,1.18,5.859,1.712c1.989,0.54,5.283,1.869,7.299,1.117   C77.991,78.053,78.577,83.107,77.091,84.683z"></path><path d="M43.665,57.694C43.938,57.452,43.826,57.606,43.665,57.694c1.3-0.706,0.14-2.492-1.111-1.814   C41.197,56.609,42.654,58.587,43.665,57.694z"></path><path d="M49.426,54.864c1.462-0.211,1.041-2.215-0.253-2.355C47.558,52.333,47.806,55.106,49.426,54.864z"></path><path d="M54.083,57.33c1.305-0.703,0.141-2.491-1.11-1.815C51.618,56.248,52.691,58.085,54.083,57.33z"></path><path d="M53.794,61.528c0.139,0.013,0.275,0.021-0.002-0.001c-0.777-0.059-1.237,1.5-0.053,1.599   C54.851,63.223,54.857,61.625,53.794,61.528z"></path><path d="M49.017,60.573C48.849,60.643,48.683,60.714,49.017,60.573c0.335-0.141,0.17-0.07,0.002-0.001   c1.358-0.573,0.448-2.408-0.839-2.219C46.573,58.591,47.51,61.205,49.017,60.573z"></path><path d="M36.828,54.697c1.418-0.185,1.052-2.329-0.351-2.142C35.237,52.722,35.51,54.879,36.828,54.697z"></path><path d="M26.421,79.694c-1.476,0.301-0.938,2.527,0.524,2.23C28.237,81.658,27.793,79.412,26.421,79.694z"></path><path d="M32.655,81.502c-1.053-0.421-1.637,1.201-0.594,1.617C32.987,83.486,33.633,81.892,32.655,81.502z"></path><path d="M70.305,67.078c1.493-0.156,0.999-2.34-0.451-2.188C68.299,65.053,68.536,67.267,70.305,67.078z"></path></g></svg>