<svg xmlns="http://www.w3.org/2000/svg" viewBox="0 0 1000 1000" version="1.1" x="0px" y="0px"><path fill="#000000" opacity="1.00" d=" M 105.09 278.55 C 108.78 277.84 112.20 275.99 116.01 275.87 C 149.85 274.61 184.00 281.75 214.43 296.63 C 258.31 317.62 293.99 354.75 314.04 398.98 C 316.53 404.37 318.97 409.79 320.92 415.41 C 337.98 380.77 364.69 350.91 397.43 330.40 C 433.89 307.16 477.82 295.82 520.98 298.53 C 569.97 301.19 617.49 322.25 652.87 356.13 C 670.62 373.67 686.22 393.79 696.58 416.59 C 714.38 364.21 754.37 320.01 804.24 296.24 C 834.93 281.75 869.15 273.99 903.13 276.18 C 907.04 276.41 910.39 278.65 913.98 279.98 C 929.72 286.11 943.32 297.35 952.67 311.38 C 974.21 343.00 973.72 387.80 951.29 418.82 C 964.16 429.19 973.76 443.22 979.51 458.66 C 990.58 489.38 985.29 526.13 963.88 551.19 C 981.36 574.14 987.31 605.16 979.94 633.01 C 973.54 658.41 955.72 681.26 931.36 691.56 C 927.70 693.46 923.34 693.54 919.90 695.91 C 915.77 698.51 910.70 697.96 906.07 698.45 C 891.09 699.97 876.04 698.13 861.16 696.44 C 806.12 688.06 755.27 656.08 723.28 610.60 C 716.76 601.40 711.12 591.61 705.91 581.62 C 693.46 616.35 671.93 647.85 643.74 671.69 C 617.32 694.22 585.18 709.94 551.19 717.08 C 541.29 719.26 531.14 719.79 521.08 720.72 C 510.27 721.86 499.38 721.07 488.59 720.16 C 450.54 717.26 413.95 702.23 383.39 679.64 C 369.25 668.54 355.68 656.46 344.85 642.02 C 330.39 623.92 318.95 603.40 311.30 581.54 C 296.63 612.08 274.03 638.63 246.81 658.74 C 216.05 681.12 179.13 695.49 141.06 697.95 C 132.02 698.59 122.94 699.60 113.88 698.51 C 108.12 697.78 102.31 698.09 96.54 697.76 C 81.17 694.99 66.56 687.48 55.45 676.50 C 29.81 651.81 21.51 611.65 33.48 578.40 C 36.01 570.54 39.78 563.05 44.67 556.40 C 29.66 540.42 21.61 518.74 20.45 497.02 C 20.68 493.02 20.73 489.02 20.62 485.02 C 22.62 458.88 36.07 433.58 57.39 418.10 C 45.96 401.16 40.51 380.47 41.65 360.11 C 43.12 338.82 51.21 317.64 66.04 302.08 C 76.44 290.79 89.96 281.82 105.09 278.55 M 90.44 321.49 C 77.55 333.88 71.64 352.43 73.00 370.05 C 74.25 383.87 79.10 397.84 88.84 407.99 C 92.25 411.33 94.15 416.19 93.51 420.96 C 93.13 425.81 89.52 429.38 87.58 433.63 C 85.51 437.87 80.96 439.76 77.20 442.17 C 65.44 449.75 57.62 462.20 53.58 475.40 C 51.48 482.38 51.53 489.74 51.66 496.95 C 52.69 512.62 58.94 528.51 71.10 538.86 C 74.70 542.27 79.76 544.23 82.17 548.79 C 85.67 554.68 84.49 562.74 79.56 567.46 C 77.23 569.90 73.99 571.05 70.82 571.92 C 68.12 577.30 64.50 582.25 62.83 588.10 C 55.37 608.66 59.20 633.13 73.07 650.11 C 80.42 657.79 89.26 664.91 100.00 666.83 C 106.32 666.78 112.61 667.39 118.91 667.88 C 124.79 668.45 130.66 667.59 136.53 667.27 C 174.19 665.26 210.72 649.73 239.24 625.22 C 267.38 601.09 287.76 568.16 296.80 532.20 C 267.28 547.95 234.46 557.81 201.02 559.89 C 195.79 560.12 190.13 561.34 185.27 558.75 C 179.50 555.95 175.97 549.28 176.92 542.93 C 177.69 535.94 183.83 530.03 190.87 529.59 C 201.24 528.88 211.63 528.07 221.88 526.25 C 249.47 520.90 276.11 510.30 299.41 494.54 C 299.71 491.26 300.01 487.98 300.36 484.71 C 295.23 478.80 289.25 473.72 283.21 468.78 C 257.19 447.08 225.16 433.21 192.05 426.65 C 183.86 425.10 178.26 416.11 180.36 408.06 C 182.05 399.94 190.92 394.50 198.95 396.51 C 233.75 403.38 267.22 417.70 295.61 439.05 C 292.47 428.71 289.19 418.33 284.41 408.60 C 272.83 384.47 255.87 362.88 235.02 346.08 C 203.14 320.24 162.07 305.97 121.02 306.69 C 109.81 308.74 98.19 312.66 90.44 321.49 M 874.93 308.06 C 842.15 311.20 810.50 324.33 784.65 344.63 C 757.15 366.13 735.98 395.68 724.96 428.85 C 747.36 415.95 771.61 405.82 797.07 400.95 C 801.60 399.93 806.50 401.27 810.05 404.22 C 816.29 409.26 817.44 419.24 812.40 425.51 C 808.99 430.40 802.82 431.50 797.39 432.56 C 783.83 436.29 770.25 440.30 757.65 446.63 C 742.57 453.45 728.62 462.56 715.73 472.89 C 715.94 481.37 717.80 489.73 717.91 498.23 C 743.98 516.37 774.45 528.02 805.84 532.59 C 812.38 533.71 820.13 532.61 825.26 537.73 C 832.39 543.95 831.55 556.48 823.65 561.69 C 818.22 565.85 811.10 564.27 804.86 563.65 C 775.91 560.04 747.72 550.77 722.00 537.04 C 725.51 549.11 729.98 560.95 735.99 572.02 C 744.67 587.68 754.76 602.75 767.59 615.35 C 774.89 622.10 782.12 628.97 790.29 634.69 C 816.51 653.40 847.80 665.45 880.07 667.33 C 890.33 668.37 900.68 668.27 910.92 666.98 C 916.18 664.16 921.92 662.22 926.85 658.78 C 938.19 651.59 945.81 639.58 949.55 626.88 C 953.95 611.60 952.59 594.70 945.63 580.39 C 942.46 573.64 937.58 567.92 932.87 562.22 C 928.34 558.31 926.22 551.74 928.11 545.99 C 929.04 542.17 931.95 539.36 934.80 536.86 C 943.24 529.55 948.50 519.22 951.56 508.63 C 958.05 486.23 951.15 460.06 933.28 444.76 C 929.60 441.21 924.92 439.06 920.59 436.45 C 913.58 432.24 910.54 422.49 914.12 415.10 C 915.68 411.56 918.96 409.32 921.51 406.54 C 931.44 395.86 936.89 381.42 937.48 366.92 C 938.58 345.13 927.95 322.22 908.46 311.50 C 903.87 309.42 899.27 306.47 894.02 306.96 C 887.61 306.62 881.29 307.60 874.93 308.06 M 440.71 342.67 C 407.65 356.20 379.17 380.20 359.52 409.96 C 366.45 411.63 372.70 415.35 378.02 420.03 C 390.51 430.62 398.15 445.81 411.25 455.79 C 417.93 461.17 426.78 464.84 435.41 462.65 C 446.20 459.87 454.39 451.63 461.54 443.54 C 469.94 433.37 477.77 422.20 489.28 415.26 C 497.32 410.13 507.55 408.05 516.75 411.08 C 528.60 414.94 537.74 424.09 545.44 433.52 C 553.43 443.74 561.88 454.34 573.67 460.33 C 581.28 464.26 590.66 464.23 598.27 460.29 C 611.20 453.78 619.91 441.77 628.72 430.73 C 636.41 421.67 645.19 412.15 657.21 409.31 C 648.95 397.01 639.21 385.75 628.43 375.60 C 614.29 362.74 597.93 352.41 580.63 344.37 C 536.84 324.75 484.94 323.96 440.71 342.67 M 654.11 437.09 C 646.25 441.14 640.64 448.26 635.15 454.97 C 626.58 466.00 617.36 477.04 605.14 484.16 C 597.03 488.94 587.12 491.15 577.89 488.71 C 565.77 485.68 556.12 477.09 547.74 468.24 C 538.29 458.12 531.15 445.17 518.39 438.69 C 511.27 434.81 502.29 435.20 495.38 439.37 C 482.95 446.39 475.95 459.34 466.31 469.34 C 458.43 477.65 449.21 485.55 437.87 488.44 C 428.83 490.80 419.13 488.55 411.28 483.74 C 398.09 475.88 388.73 463.40 379.28 451.63 C 372.87 444.37 365.25 436.30 354.95 435.73 C 351.25 435.88 346.81 436.41 344.14 439.16 C 336.83 455.71 332.78 473.54 330.62 491.46 C 337.08 485.67 345.16 480.90 354.07 480.79 C 362.84 480.66 370.88 485.19 377.39 490.71 C 390.39 501.43 398.11 517.20 411.69 527.33 C 418.53 532.77 427.72 536.24 436.41 533.60 C 448.13 530.01 456.72 520.53 464.33 511.41 C 472.46 501.00 481.09 490.22 493.23 484.31 C 501.14 480.33 510.69 479.72 518.94 483.06 C 531.09 487.88 540.14 497.89 548.00 507.98 C 555.67 517.60 564.09 527.46 575.65 532.42 C 583.61 535.91 593.01 534.81 600.38 530.39 C 613.55 522.84 621.99 509.85 631.61 498.56 C 638.80 490.72 647.00 482.35 657.96 480.51 C 668.13 478.94 677.31 485.17 684.33 491.83 C 684.00 484.80 684.99 477.64 683.17 470.75 C 680.66 460.74 678.12 450.64 673.81 441.24 C 669.24 435.73 660.56 433.62 654.11 437.09 M 330.22 522.05 C 330.69 534.30 333.53 546.26 336.30 558.15 C 341.85 554.54 348.25 551.76 355.00 552.01 C 363.86 552.21 371.81 557.02 378.30 562.70 C 389.52 572.25 396.67 585.53 407.71 595.24 C 413.85 600.78 421.43 605.72 430.00 605.69 C 438.56 605.71 446.17 600.83 452.37 595.35 C 464.60 584.79 472.16 569.75 485.44 560.28 C 493.69 553.97 504.61 550.21 514.94 553.01 C 527.31 556.25 536.87 565.60 544.81 575.17 C 553.13 585.70 561.70 596.88 574.03 602.93 C 581.91 606.91 591.60 606.52 599.27 602.21 C 612.67 595.06 621.27 582.11 630.75 570.75 C 637.96 562.76 646.05 554.22 656.99 551.89 C 665.61 550.05 673.99 554.34 680.50 559.62 C 683.39 548.92 685.59 538.00 686.53 526.95 C 686.79 524.94 684.97 523.56 683.93 522.10 C 678.75 516.27 673.35 509.92 665.76 507.30 C 659.48 505.10 652.92 508.14 648.17 512.20 C 637.29 521.38 630.24 534.10 619.92 543.83 C 610.81 552.77 599.30 560.84 586.04 560.92 C 572.76 560.91 561.19 552.86 552.09 543.87 C 541.09 533.82 534.17 519.71 521.36 511.59 C 514.67 507.04 505.70 505.69 498.25 509.18 C 487.84 513.87 480.60 523.16 473.76 531.95 C 465.23 542.35 455.61 552.64 443.00 557.99 C 433.60 562.05 422.53 561.17 413.63 556.26 C 399.22 548.61 389.25 535.27 379.26 522.81 C 372.87 515.58 365.27 507.54 355.01 506.94 C 344.60 506.85 336.68 514.83 330.22 522.05 M 344.18 580.93 C 349.30 592.60 355.18 604.00 362.73 614.30 C 383.63 644.50 414.35 667.64 448.84 680.12 C 468.99 687.59 490.59 690.31 511.99 690.35 C 526.05 689.31 540.28 688.57 553.90 684.64 C 574.98 679.05 595.00 669.55 612.68 656.79 C 638.90 637.88 659.74 611.70 672.50 582.01 C 669.06 579.73 665.21 577.65 660.95 577.79 C 655.19 577.93 650.24 581.43 646.14 585.17 C 635.95 594.70 628.86 607.02 618.50 616.40 C 609.46 624.96 597.97 632.50 585.03 632.11 C 571.33 631.68 559.73 622.91 550.48 613.53 C 540.51 603.80 533.76 590.89 521.89 583.14 C 515.34 578.56 506.56 576.84 499.06 580.05 C 489.00 584.25 481.78 592.90 475.25 601.29 C 467.63 610.91 459.17 620.24 448.49 626.51 C 440.69 631.13 431.14 633.21 422.27 630.82 C 410.57 627.75 401.19 619.45 393.13 610.81 C 383.47 600.57 376.39 587.30 363.59 580.48 C 357.57 577.07 350.13 577.69 344.18 580.93 Z"></path></svg>