<svg xmlns="http://www.w3.org/2000/svg" viewBox="0 0 1000 1000" version="1.1" x="0px" y="0px"><path fill="#000000" opacity="1.00" d=" M 104.41 281.47 C 107.64 277.39 112.93 275.59 118.02 275.77 C 154.67 274.79 191.48 283.70 223.62 301.33 C 250.17 315.80 273.39 336.22 291.35 360.52 C 303.85 377.21 313.59 395.89 320.92 415.38 C 340.01 376.56 371.33 343.90 409.40 323.34 C 443.33 304.90 482.46 296.09 521.02 298.53 C 570.21 301.22 617.95 322.44 653.36 356.61 C 670.89 373.99 686.23 393.95 696.55 416.48 C 707.73 384.09 727.22 354.57 752.49 331.45 C 779.76 305.95 814.13 288.23 850.62 280.42 C 867.77 276.42 885.48 275.13 903.05 276.18 C 908.79 276.47 914.04 280.43 916.19 285.71 C 917.17 288.35 917.20 291.24 918.17 293.89 C 944.68 351.54 957.80 414.75 960.92 477.95 C 964.12 547.84 955.49 618.76 931.71 684.75 C 929.64 691.87 922.34 695.30 915.92 697.55 C 903.99 698.98 891.92 699.59 879.94 698.33 C 817.95 695.17 758.90 661.23 723.31 610.64 C 716.80 601.40 711.05 591.62 705.93 581.55 C 694.51 613.43 675.47 642.61 650.59 665.60 C 623.89 690.48 590.54 708.11 554.97 716.24 C 543.55 719.11 531.77 719.76 520.09 720.81 C 510.39 721.77 500.63 721.12 490.94 720.36 C 458.15 718.13 426.08 707.23 398.33 689.69 C 385.75 682.35 374.65 672.85 363.90 663.10 C 350.36 650.37 339.10 635.42 329.23 619.73 C 322.23 607.58 315.88 594.98 311.33 581.69 C 296.97 611.04 275.60 636.85 249.61 656.63 C 218.86 679.84 181.60 694.90 143.07 697.79 C 133.75 698.40 124.39 699.65 115.06 698.60 C 111.84 698.51 108.25 697.27 105.41 699.36 C 99.89 702.64 92.37 701.66 87.69 697.34 C 85.22 695.19 83.79 692.16 82.72 689.12 C 67.13 645.62 58.25 599.85 54.81 553.81 C 50.66 497.00 54.74 439.51 67.78 384.02 C 75.13 353.07 85.51 322.82 99.14 294.06 C 101.41 290.06 101.16 284.97 104.41 281.47 M 127.75 306.71 C 120.71 320.63 114.70 335.08 109.99 349.95 C 98.66 381.88 91.82 415.24 87.78 448.84 C 79.49 521.87 85.27 596.93 107.85 667.04 C 116.58 667.78 125.34 668.55 134.08 667.44 C 168.81 666.04 202.70 653.17 230.42 632.36 C 259.31 610.50 281.44 579.84 292.90 545.46 C 271.62 554.18 249.01 559.75 226.05 561.45 C 217.36 561.93 208.67 563.02 199.96 562.57 C 192.47 562.14 186.12 555.49 185.82 548.03 C 185.21 539.98 191.88 532.16 200.00 531.81 C 214.36 531.61 228.73 530.38 242.92 528.16 C 262.36 524.45 281.23 517.82 298.79 508.71 C 298.89 498.18 299.90 487.69 301.34 477.27 C 299.50 476.24 297.60 475.28 296.06 473.82 C 271.01 447.70 238.57 428.82 203.59 419.60 C 199.91 418.65 196.00 417.59 193.27 414.76 C 187.99 409.82 187.07 401.07 191.18 395.13 C 194.70 389.61 201.92 386.99 208.20 388.79 C 238.69 396.55 267.86 410.19 292.70 429.60 C 278.56 385.65 246.37 347.76 205.29 326.70 C 181.42 314.20 154.68 307.33 127.75 306.71 M 845.41 313.65 C 810.56 323.43 779.17 344.44 756.23 372.37 C 744.34 386.73 735.02 403.09 727.95 420.31 C 753.03 402.16 781.74 389.00 811.92 382.06 C 816.45 381.04 821.40 382.24 824.97 385.22 C 830.24 389.42 832.14 397.23 829.33 403.38 C 827.34 408.06 822.91 411.46 817.94 412.42 C 781.81 420.93 748.17 439.66 722.03 466.03 C 720.21 467.99 718.12 469.68 715.88 471.14 C 715.34 478.30 717.21 485.33 717.62 492.45 C 728.94 498.05 740.84 502.46 753.01 505.81 C 770.85 511.09 789.54 512.39 808.04 513.16 C 813.89 513.04 820.44 511.55 825.54 515.33 C 833.46 520.30 834.70 532.55 827.97 539.01 C 822.87 544.56 814.81 543.77 807.98 544.13 C 799.27 543.87 790.57 543.18 781.89 542.46 C 760.42 540.66 739.42 535.00 719.43 527.13 C 723.16 542.66 728.35 557.93 735.98 572.00 C 743.55 585.63 752.12 598.81 762.72 610.30 C 768.05 616.30 774.31 621.34 780.16 626.82 C 804.05 646.73 833.20 660.41 863.89 665.57 C 877.48 667.23 891.23 668.92 904.92 667.54 C 911.52 648.74 916.51 629.41 920.49 609.90 C 933.39 544.87 934.02 477.41 922.47 412.13 C 915.94 375.95 905.60 340.32 890.06 306.95 C 875.03 307.67 859.89 309.35 845.41 313.65 M 446.21 340.40 C 523.07 417.27 599.95 494.12 676.79 571.00 C 682.38 555.25 685.96 538.72 686.86 522.02 C 686.26 515.36 685.23 508.74 684.26 502.12 C 684.01 493.08 684.75 483.99 683.95 474.97 C 675.82 432.13 651.47 392.66 616.98 366.00 C 602.66 355.60 587.30 346.32 570.58 340.33 C 530.94 325.29 485.86 325.48 446.21 340.40 M 378.24 386.08 C 462.90 470.85 547.62 555.54 632.36 640.23 C 644.43 628.71 654.62 615.31 663.02 600.91 C 580.97 518.84 498.83 436.86 416.89 354.68 C 402.62 363.31 389.67 373.96 378.24 386.08 M 342.10 443.97 C 334.24 464.03 330.30 485.52 329.73 507.03 C 329.52 510.76 330.97 514.35 330.74 518.07 C 329.61 527.86 331.88 537.61 333.81 547.16 C 339.94 579.01 355.67 608.68 377.35 632.68 C 404.95 662.36 442.56 683.05 482.88 688.50 C 493.19 689.52 503.55 690.68 513.93 690.26 C 527.02 689.14 540.27 688.52 552.97 684.88 C 572.63 679.82 591.31 671.26 608.17 659.98 C 525.18 576.86 442.12 493.82 359.00 410.82 C 352.54 421.41 346.38 432.29 342.10 443.97 Z"></path></svg>