<svg xmlns="http://www.w3.org/2000/svg" xmlns:xlink="http://www.w3.org/1999/xlink" version="1.1" x="0px" y="0px" viewBox="0 0 100 100" enable-background="new 0 0 100 100" xml:space="preserve"><g><path d="M50.582,73.807v12.448c0,0.552-0.447,1-1,1s-1-0.448-1-1V73.807c0-0.552,0.447-1,1-1S50.582,73.254,50.582,73.807z    M61.105,72.153c-0.554-0.077-1.049,0.315-1.12,0.863l-1.611,12.373c-0.071,0.547,0.314,1.049,0.862,1.121   c0.044,0.006,0.087,0.008,0.13,0.008c0.495,0,0.925-0.367,0.99-0.871l1.611-12.373C62.039,72.726,61.653,72.224,61.105,72.153z    M38.013,72.153c-0.548,0.071-0.934,0.573-0.863,1.121l1.609,12.373c0.065,0.504,0.496,0.871,0.99,0.871   c0.043,0,0.087-0.002,0.13-0.008c0.548-0.071,0.934-0.573,0.863-1.121l-1.609-12.373C39.062,72.468,38.555,72.076,38.013,72.153z    M74.823,65.695l-5.504,22.202c-0.006,0.379-0.185,0.739-0.513,0.958C68.59,89,63.354,92.395,49.605,92.395   S30.622,89,30.405,88.856c-0.249-0.166-0.426-0.419-0.498-0.709l-5.552-22.392c-4.007-3.71-5.589-8.999-5.363-12.671   c0.23-3.762,2.884-8.824,7.556-11.734c-0.743-1.753-1.039-4-1.042-4.028c-0.231-1.841-0.092-3.775,0.402-5.597   c0.717-2.65,2.196-5.066,4.075-6.701c-1.817-3.309-1.231-7.492,1.581-10.172c0.237-0.226,0.485-0.431,0.741-0.624   c-1.34-2.929-4.568-4.297-4.604-4.311c-0.611-0.252-0.905-0.953-0.654-1.564c0.251-0.612,0.95-0.907,1.56-0.658   c0.181,0.073,4.026,1.682,5.801,5.369c3.082-1.16,6.698-0.454,9.108,2.075c0.821,0.862,1.423,1.876,1.817,2.975   c1.088-0.71,2.062-1.58,2.861-2.722c0.7-1.002,1.124-2.615,1.006-3.833c-0.041-0.425,0.146-0.839,0.492-1.089   c0.347-0.25,0.798-0.297,1.188-0.124c3.086,1.367,7.571,3.578,10.886,6.976c2.919,2.974,4.224,7.806,3.441,12.533   c6.307,2.751,13.497,8.151,15.211,14.088C82.117,49.778,80.259,59.823,74.823,65.695z M62.615,23.908   c-0.421,0.64-0.999,1.193-1.849,1.56c-0.947,0.404-1.922,0.426-2.782,0.445c-0.759,0.017-1.475,0.033-2.063,0.299   c-0.829,0.378-1.559,0.926-2.049,1.542c-0.352,0.437-0.64,0.939-0.945,1.471c-0.497,0.863-1.01,1.755-1.849,2.489   c-1.501,1.307-3.591,1.445-5.568,0.39c-1.586-0.84-2.901-0.862-4.082-0.026c-0.931,0.663-1.649,1.628-2.491,2.82   c-1.155,1.66-3.204,3.44-5.479,3.44c-0.684,0-1.348-0.159-1.975-0.472c-0.82-0.418-1.442-0.922-1.992-1.367   c-0.591-0.479-1.08-0.859-1.681-1.067c-0.006,0.534,0.011,1.066,0.076,1.588c0.105,0.821,0.508,2.775,1.068,3.801   c7.908-0.219,21.937-1.974,33.735-10.609C63.107,28.325,63.129,26.062,62.615,23.908z M31.95,23.614   c2.106-1.256,4.456-2.011,6.747-2.739c1.566-0.497,3.088-0.992,4.5-1.621c-0.271-0.916-0.749-1.756-1.419-2.46   c-2.303-2.416-6.143-2.508-8.559-0.205C31.278,18.438,30.816,21.289,31.95,23.614z M26.229,64.224   c0.031,0.027,0.044,0.065,0.072,0.095c0.034,0.036,0.074,0.062,0.103,0.103c0.093,0.12,1.718,2.155,4.876,2.956   c0.604,0.152,1.164,0.217,1.68,0.221c2.23,0.016,3.588-1.112,3.657-1.171c0.001,0,0.001,0,0.001,0l0.001,0.001   c0.264-0.23,0.62-0.34,0.979-0.285c0.309,0.047,0.58,0.212,0.764,0.45c0.053,0.063,0.481,0.574,1.314,1.096   c0.006,0.003,0.014,0.007,0.019,0.01c0.203,0.126,0.429,0.253,0.679,0.374c0.062,0.029,0.137,0.054,0.201,0.083   c0.207,0.093,0.416,0.186,0.654,0.267c0.139,0.048,0.303,0.081,0.453,0.123c0.186,0.051,0.361,0.11,0.562,0.15   c0.291,0.059,0.613,0.093,0.938,0.123c0.083,0.008,0.154,0.026,0.239,0.031c0.121,0.007,0.223-0.005,0.34-0.003   c3.174,0.057,4.9-1.562,4.974-1.634c0.121-0.118,0.263-0.202,0.411-0.259c0.012-0.004,0.024-0.002,0.036-0.007   c0.13-0.045,0.263-0.075,0.399-0.074c0.135-0.001,0.27,0.029,0.398,0.074c0.012,0.004,0.024,0.002,0.036,0.007   c0.149,0.057,0.29,0.141,0.411,0.259c0.074,0.072,1.799,1.69,4.975,1.634c0.115-0.002,0.219,0.01,0.338,0.003   c0.086-0.005,0.157-0.023,0.24-0.031c0.326-0.03,0.646-0.064,0.938-0.123c0.203-0.041,0.377-0.099,0.563-0.15   c0.149-0.042,0.313-0.075,0.454-0.123c0.236-0.081,0.447-0.174,0.654-0.267c0.063-0.028,0.139-0.053,0.199-0.083   c0.252-0.121,0.477-0.248,0.68-0.374c0.006-0.003,0.013-0.007,0.018-0.01c0.834-0.521,1.264-1.032,1.314-1.096   c0.186-0.238,0.457-0.402,0.766-0.45c0.358-0.055,0.715,0.055,0.979,0.285l0.002-0.001c0.069,0.059,1.428,1.187,3.658,1.171   c0.515-0.003,1.076-0.068,1.679-0.221c3.141-0.796,4.763-2.811,4.873-2.952c0.02-0.027,0.045-0.047,0.067-0.073   c0.017-0.019,0.021-0.043,0.039-0.062c4.391-4.558,6.291-12.39,5.636-17.718c-0.672,0.4-1.271,0.916-1.74,1.547   c-2.229,3-3.39,6.95-6.46,9.27c-2.89,2.19-7.26,2.57-10.55,1.05c-2.46-1.14-4.71-2.61-7.53-2.66c-1.88-0.04-3.6,0.55-5.12,1.66   c-2.8,2.03-5.46,4.73-9.24,3.44c-2-0.68-2.91-1.82-4.68-2.84c-1.88-1.07-4.11-1.14-5.98,0.01c-1.87,1.144-3.589,1.129-4.678,0.932   C23.312,60.854,24.519,62.718,26.229,64.224z M71.686,68.375c-0.879,0.517-1.933,1.005-3.21,1.329   c-0.344,0.087-0.678,0.149-1.004,0.196c-0.019,0.002-0.037,0.008-0.056,0.011c-0.052,0.007-0.099,0.006-0.15,0.012   c-0.972,0.117-1.87,0.076-2.665-0.069c-0.035-0.006-0.066-0.017-0.102-0.023c-0.24-0.047-0.476-0.099-0.697-0.161   c-0.037-0.011-0.07-0.024-0.107-0.035c-0.213-0.063-0.42-0.129-0.613-0.203c-0.024-0.009-0.045-0.02-0.068-0.029   c-0.422-0.165-0.799-0.347-1.114-0.531c-1.135,1.008-3.175,2.194-6.015,2.375c-0.227,0.013-0.447,0.019-0.664,0.019   c-0.084,0-0.16-0.009-0.242-0.011c-0.106-0.002-0.211-0.008-0.314-0.014c-0.256-0.013-0.505-0.032-0.744-0.061   c-0.035-0.004-0.068-0.009-0.102-0.014c-1.973-0.257-3.403-1.001-4.234-1.571c-0.832,0.57-2.264,1.314-4.236,1.571   c-0.033,0.004-0.066,0.009-0.1,0.014c-0.24,0.029-0.489,0.048-0.745,0.061c-0.104,0.005-0.208,0.011-0.315,0.014   c-0.082,0.002-0.157,0.011-0.241,0.011c-0.216,0-0.438-0.006-0.664-0.019c-2.84-0.181-4.88-1.367-6.015-2.375   c-0.316,0.184-0.691,0.366-1.114,0.531c-0.024,0.009-0.044,0.02-0.068,0.029c-0.192,0.073-0.401,0.139-0.614,0.203   c-0.037,0.011-0.068,0.024-0.106,0.035c-0.222,0.062-0.457,0.114-0.698,0.161c-0.034,0.007-0.065,0.017-0.102,0.023   c-0.795,0.145-1.691,0.186-2.664,0.069c-0.051-0.006-0.099-0.005-0.15-0.012c-0.018-0.002-0.037-0.008-0.055-0.011   c-0.328-0.047-0.662-0.109-1.005-0.196c-1.278-0.324-2.333-0.812-3.212-1.329l4.635,18.693c1.363,0.698,6.572,2.927,17.493,2.927   c10.774,0,15.989-2.169,17.44-2.9L71.686,68.375z"></path></g></svg>