<svg xmlns="http://www.w3.org/2000/svg" viewBox="0 0 1000 1000" version="1.1" x="0px" y="0px"><path fill="#000000" opacity="1.00" d=" M 104.47 278.70 C 108.37 278.00 111.99 276.04 115.99 275.87 C 153.33 274.43 190.93 283.40 223.68 301.35 C 250.87 316.19 274.56 337.26 292.69 362.35 C 304.57 378.56 313.85 396.60 320.92 415.38 C 340.00 376.58 371.30 343.94 409.34 323.37 C 443.27 304.92 482.40 296.10 520.97 298.53 C 569.96 301.19 617.49 322.25 652.87 356.13 C 670.62 373.62 686.11 393.76 696.58 416.48 C 707.71 384.08 727.24 354.57 752.50 331.44 C 779.37 306.33 813.13 288.74 849.02 280.78 C 867.28 276.46 886.21 274.83 904.91 276.41 C 914.82 280.00 924.86 284.13 933.16 290.79 C 955.57 307.39 968.34 335.35 968.47 363.00 C 968.79 382.78 962.83 402.71 951.30 418.83 C 961.29 426.97 969.47 437.19 975.18 448.76 C 991.68 481.21 987.54 523.39 963.86 551.30 C 982.77 575.82 988.00 609.82 978.15 639.08 C 969.78 664.82 949.17 687.39 922.61 694.47 C 919.87 695.82 917.27 697.71 914.12 697.84 C 907.40 698.39 900.67 698.93 893.94 699.12 C 873.67 698.29 853.22 696.51 833.81 690.25 C 805.57 681.85 779.45 667.01 757.06 647.94 C 735.77 629.51 718.36 606.67 705.95 581.41 C 694.59 613.37 675.48 642.59 650.57 665.62 C 622.94 691.37 588.19 709.31 551.24 717.07 C 541.32 719.26 531.15 719.79 521.06 720.72 C 510.34 721.85 499.54 721.08 488.84 720.18 C 450.69 717.32 414.00 702.28 383.37 679.62 C 369.07 668.40 355.37 656.16 344.47 641.53 C 330.18 623.58 318.90 603.23 311.31 581.58 C 296.77 611.69 274.63 637.95 247.88 657.94 C 216.89 680.81 179.50 695.48 140.95 697.96 C 136.32 698.30 131.70 698.62 127.07 698.94 C 118.34 699.47 109.68 697.60 100.96 697.95 C 94.74 698.15 88.74 696.06 82.96 694.03 C 71.48 689.54 60.73 682.75 52.53 673.46 C 23.24 642.60 19.98 590.93 44.67 556.39 C 30.62 541.44 22.63 521.44 20.78 501.15 C 20.34 498.14 20.45 495.10 20.68 492.08 C 20.01 476.88 24.28 461.72 31.41 448.37 C 37.42 436.34 46.66 426.13 57.39 418.10 C 46.12 401.43 40.72 381.11 41.58 361.05 C 42.38 348.76 45.24 336.55 50.38 325.34 C 56.56 311.90 66.22 300.08 78.05 291.21 C 86.03 285.56 94.78 280.65 104.47 278.70 M 99.82 313.85 C 94.63 316.78 90.56 321.21 86.64 325.61 C 76.32 337.75 71.83 354.29 73.00 370.05 C 74.26 383.88 79.10 397.85 88.86 408.00 C 92.25 411.34 94.14 416.18 93.52 420.94 C 93.13 425.78 89.54 429.37 87.60 433.61 C 85.53 437.86 80.97 439.75 77.21 442.17 C 65.44 449.75 57.61 462.20 53.59 475.40 C 51.47 482.39 51.53 489.76 51.66 496.99 C 52.69 512.42 58.75 528.05 70.58 538.40 C 74.29 542.06 79.65 544.06 82.19 548.83 C 85.67 554.73 84.47 562.79 79.52 567.50 C 77.19 569.93 73.96 571.05 70.80 571.94 C 67.98 577.51 64.26 582.68 62.60 588.79 C 57.73 602.63 57.93 618.14 62.98 631.91 C 66.02 641.14 71.40 649.79 79.12 655.82 C 84.95 661.22 92.16 665.36 100.01 666.83 C 106.34 666.79 112.64 667.38 118.94 667.88 C 124.81 668.43 130.66 667.59 136.51 667.27 C 177.01 665.10 216.18 647.36 245.53 619.54 C 270.47 596.07 288.42 565.39 296.82 532.19 C 264.35 549.55 227.84 559.67 190.98 560.32 C 183.18 559.95 176.58 552.74 176.79 544.96 C 176.57 537.15 183.19 529.98 190.99 529.58 C 201.32 528.87 211.67 528.06 221.88 526.25 C 249.47 520.90 276.11 510.30 299.42 494.54 C 299.71 491.26 300.01 487.98 300.35 484.71 C 295.23 478.80 289.25 473.73 283.22 468.79 C 257.21 447.09 225.19 433.22 192.09 426.65 C 186.79 425.58 182.31 421.47 180.69 416.33 C 178.65 410.18 180.96 402.91 186.24 399.15 C 190.00 396.27 195.01 395.60 199.55 396.62 C 234.13 403.57 267.42 417.80 295.63 439.08 C 291.83 426.35 287.54 413.67 281.06 402.02 C 269.82 380.72 254.21 361.71 235.56 346.49 C 203.57 320.41 162.29 305.94 121.00 306.70 C 113.68 308.06 106.34 310.15 99.82 313.85 M 874.93 308.06 C 842.15 311.20 810.50 324.33 784.64 344.63 C 757.14 366.14 735.97 395.69 724.96 428.85 C 747.63 415.80 772.20 405.54 798.01 400.80 C 805.45 399.52 813.18 404.72 815.03 412.00 C 817.36 419.65 812.57 428.56 804.88 430.79 C 788.21 434.74 771.60 439.59 756.23 447.30 C 741.67 453.99 728.25 462.91 715.73 472.87 C 715.95 481.38 717.78 489.76 717.94 498.28 C 747.21 518.49 781.86 530.88 817.30 533.84 C 823.20 534.69 828.23 539.39 829.68 545.15 C 831.46 551.45 828.59 558.66 823.04 562.10 C 819.55 564.47 815.17 564.82 811.10 564.29 C 779.96 561.41 749.56 551.72 722.00 537.03 C 728.64 561.30 741.08 583.67 756.65 603.32 C 783.62 635.74 822.12 658.62 863.83 665.56 C 879.41 667.61 895.24 669.13 910.90 666.98 C 918.99 663.10 927.49 659.57 934.03 653.18 C 956.65 631.35 958.09 592.04 937.72 568.26 C 934.69 563.28 929.05 559.95 927.86 553.95 C 926.48 548.49 928.49 542.42 932.75 538.77 C 949.97 524.38 957.16 499.85 952.58 478.17 C 949.86 465.41 943.29 453.25 933.28 444.76 C 929.26 440.82 923.95 438.73 919.36 435.62 C 911.52 429.98 910.11 417.06 917.51 410.47 C 934.03 395.91 940.76 371.99 936.15 350.70 C 933.27 337.48 926.55 324.63 915.55 316.41 C 910.73 312.13 904.76 309.45 898.74 307.32 C 890.82 306.27 882.84 307.41 874.93 308.06 M 501.24 329.32 C 470.34 330.40 439.80 340.06 413.76 356.68 C 382.34 376.35 357.62 406.20 343.50 440.41 C 329.33 475.05 325.74 514.18 334.55 550.63 C 338.46 569.80 346.42 587.93 356.32 604.73 C 365.53 619.08 376.00 632.82 388.95 644.02 C 418.16 670.61 456.38 687.64 495.97 689.73 C 509.73 691.27 523.51 689.54 537.20 688.12 C 579.38 681.52 618.66 658.70 645.76 625.77 C 669.68 596.89 684.32 560.42 686.84 522.99 C 686.55 515.62 684.78 508.37 684.67 500.97 C 683.78 491.98 684.91 482.91 683.80 473.96 C 677.95 445.03 665.06 417.45 646.29 394.64 C 635.28 381.35 622.72 369.20 608.16 359.86 C 577.08 338.43 538.95 327.53 501.24 329.32 Z"></path><path fill="#000000" opacity="1.00" d=" M 901.99 351.02 C 905.83 348.99 910.63 350.32 913.43 353.48 C 919.40 360.08 919.53 371.14 913.90 378.00 C 911.29 381.24 906.62 383.06 902.67 381.24 C 894.02 377.49 886.49 371.63 879.00 366.00 C 886.29 360.49 893.65 354.87 901.99 351.02 Z"></path><path fill="#000000" opacity="1.00" d=" M 108.62 359.60 C 111.16 356.07 116.02 353.83 120.22 355.72 C 128.92 359.46 136.47 365.35 144.00 371.00 C 136.71 376.52 129.34 382.15 120.99 385.99 C 117.35 387.86 112.82 386.85 110.02 383.98 C 103.76 377.66 103.38 366.65 108.62 359.60 Z"></path><path fill="#000000" opacity="1.00" d=" M 917.04 478.01 C 920.89 475.97 925.69 477.36 928.48 480.53 C 934.39 487.14 934.52 498.14 928.92 504.98 C 926.31 508.21 921.67 510.06 917.71 508.26 C 909.04 504.51 901.50 498.64 894.00 493.00 C 901.30 487.48 908.68 481.85 917.04 478.01 Z"></path><path fill="#000000" opacity="1.00" d=" M 94.54 485.51 C 97.33 482.34 102.13 480.98 105.99 483.01 C 114.34 486.86 121.70 492.48 129.00 498.00 C 121.69 503.53 114.31 509.17 105.94 513.01 C 102.10 514.99 97.34 513.67 94.57 510.52 C 88.46 503.76 88.45 492.28 94.54 485.51 Z"></path><path fill="#000000" opacity="1.00" d=" M 916.99 606.03 C 920.83 603.98 925.65 605.32 928.45 608.50 C 934.39 615.09 934.52 626.11 928.93 632.96 C 926.32 636.21 921.65 638.07 917.68 636.25 C 909.02 632.49 901.49 626.63 894.00 621.00 C 901.29 615.49 908.65 609.87 916.99 606.03 Z"></path><path fill="#000000" opacity="1.00" d=" M 94.10 614.01 C 96.71 610.79 101.35 608.92 105.30 610.75 C 113.96 614.50 121.50 620.36 129.00 626.00 C 121.71 631.52 114.34 637.14 106.00 640.98 C 102.12 643.01 97.29 641.67 94.50 638.45 C 88.60 631.83 88.49 620.83 94.10 614.01 Z"></path></svg>