<svg xmlns="http://www.w3.org/2000/svg" xmlns:xlink="http://www.w3.org/1999/xlink" version="1.1" x="0px" y="0px" viewBox="0 0 100 100" enable-background="new 0 0 100 100" xml:space="preserve"><g><path d="M50.583,72.489v12.448c0,0.552-0.448,1-1,1s-1-0.448-1-1V72.489c0-0.552,0.448-1,1-1S50.583,71.937,50.583,72.489z    M61.107,70.835c-0.534-0.067-1.049,0.315-1.121,0.863l-1.611,12.373c-0.071,0.547,0.315,1.049,0.863,1.121   c0.043,0.006,0.087,0.008,0.13,0.008c0.495,0,0.924-0.367,0.99-0.871l1.611-12.373C62.042,71.408,61.655,70.906,61.107,70.835z    M38.015,70.835c-0.548,0.071-0.934,0.573-0.863,1.121l1.609,12.373c0.065,0.504,0.496,0.871,0.99,0.871   c0.043,0,0.087-0.002,0.13-0.008c0.548-0.071,0.934-0.573,0.863-1.121l-1.609-12.373C39.064,71.15,38.557,70.762,38.015,70.835z    M74.825,64.378L69.32,86.58c-0.006,0.379-0.185,0.739-0.513,0.958c-0.216,0.145-5.451,3.539-19.201,3.539   c-13.749,0-18.984-3.394-19.2-3.539c-0.249-0.166-0.426-0.419-0.498-0.709l-5.552-22.392c-4.005-3.708-5.588-8.997-5.364-12.671   c0.176-2.864,1.759-6.479,4.564-9.327c-0.321-0.589-0.521-1.254-0.521-1.971c0-1.74,1.079-3.228,2.6-3.843   c-0.079-0.365-0.127-0.614-0.128-0.624c-0.233-1.834-0.094-3.77,0.401-5.595c0.752-2.778,2.334-5.307,4.341-6.938   c0.128-0.104,0.264-0.194,0.396-0.293c-0.199-0.493-0.307-1.021-0.307-1.556c0-2.288,1.861-4.15,4.149-4.15   c1.597,0,2.988,0.902,3.681,2.256c0.177-0.057,0.354-0.113,0.53-0.169c1.517-0.482,2.994-0.96,4.369-1.562   c0.613-1.527,2.103-2.611,3.846-2.611c0.049,0,0.094,0.013,0.143,0.015c0.405-0.403,0.792-0.833,1.138-1.327   c0.702-1.004,1.125-2.616,1.006-3.832c-0.042-0.425,0.146-0.84,0.492-1.09c0.346-0.25,0.8-0.297,1.188-0.125   c3.087,1.367,7.573,3.578,10.886,6.977c2.076,2.114,3.329,5.168,3.603,8.454c2.189,0.112,3.94,1.912,3.94,4.128   c0,0.638-0.16,1.248-0.432,1.806c5.185,2.983,10.153,7.431,11.54,12.232C82.117,48.46,80.259,58.505,74.825,64.378z M37.42,66.01   L37.42,66.01l-0.001,0.001 M28.226,31.035c-0.117,0.43-0.204,0.867-0.273,1.307c1.324-0.135,3.51-0.399,6.184-0.879   c0.43-0.079,0.85,0.211,0.929,0.646c0.078,0.435-0.211,0.851-0.646,0.929c-2.959,0.531-5.298,0.801-6.604,0.927   c-0.013,0.584,0.001,1.167,0.074,1.735c0.019,0.11,0.083,0.374,0.171,0.715c1.603,0.346,2.865,1.617,3.192,3.227   c3.817-0.176,10.718-0.846,17.937-3.286c-0.023-0.179-0.055-0.356-0.055-0.542c0-2.289,1.862-4.15,4.15-4.15   c1.306,0,2.458,0.619,3.219,1.565c2.136-1.135,4.211-2.477,6.158-4.044c0.001-0.016,0.007-0.032,0.009-0.048   c0.005-0.049-0.007-0.097,0.004-0.146c0.549-2.391,0.461-5.414-0.577-8.043c-1.073,1.077-2.288,2.105-3.634,3.068   c-0.141,0.101-0.304,0.149-0.465,0.149c-0.25,0-0.495-0.117-0.651-0.335c-0.257-0.359-0.174-0.859,0.186-1.116   c1.441-1.03,2.713-2.138,3.814-3.296c-0.37-0.62-0.783-1.213-1.295-1.735c-2.504-2.57-5.822-4.43-8.538-5.725   c-0.201,1.261-0.679,2.529-1.352,3.491c-0.213,0.305-0.438,0.588-0.668,0.861c0.95,0.761,1.571,1.917,1.571,3.225   c0,2.288-1.862,4.148-4.15,4.148c-1.899,0-3.487-1.289-3.978-3.033c-1.156,0.445-2.339,0.822-3.512,1.195   c-2.843,0.903-5.528,1.756-7.662,3.488C30.139,26.652,28.85,28.731,28.226,31.035z M21.388,51.913   c-0.067,1.103,0.084,2.424,0.458,3.807c1.489-0.248,2.833,0.487,4.05,1.164c1.169,0.65,2.271,1.262,3.397,1   c0.691-0.164,1.396-0.569,2.142-1c1.598-0.919,3.586-2.064,5.736-0.45c0.85,0.638,1.368,1.525,1.825,2.307   c0.773,1.325,1.277,2.075,2.63,2.075c1.569,0,2.282-0.936,3.122-2.78c0.923-2.034,2.202-4.278,4.686-5.491   c3.06-1.496,6.164-0.883,9.226,1.827l0.483,0.434c2.234,2.014,3.963,3.348,5.909,2.187c1.556-0.933,2.002-2.68,2.476-4.529   c0.176-0.688,0.358-1.399,0.602-2.069c0.36-0.997,1.255-2.324,2.59-2.777c0.826-0.281,1.665-0.171,2.426,0.318   c0.594,0.38,0.989,0.982,1.338,1.513c0.642,0.978,0.897,1.228,1.458,1.112c1.41-0.282,2.241-2.652,2.635-4.435   c-0.071-1.028-0.22-1.989-0.465-2.832c-1.315-4.554-7.39-9.917-14.491-12.824c-2.026,1.628-4.174,3.015-6.373,4.192   c0.108,0.369,0.184,0.75,0.184,1.154c0,2.288-1.861,4.149-4.148,4.149c-1.521,0-2.84-0.832-3.563-2.056   c-7.464,2.542-14.548,3.203-18.467,3.358c-0.374,1.907-2.054,3.352-4.07,3.352c-0.694,0-1.338-0.188-1.914-0.49   C22.897,46.541,21.531,49.591,21.388,51.913z M71.688,67.058c-0.879,0.518-1.933,1.007-3.204,1.329   c-2.903,0.735-5.242-0.049-6.578-0.83c-1.015,0.879-2.998,2.179-6.011,2.371c-2.873,0.164-5.063-0.792-6.307-1.661   c-1.145,0.805-3.095,1.68-5.649,1.68c-0.213,0-0.43-0.006-0.651-0.019c-2.822-0.18-4.869-1.369-6.008-2.373   c-1.336,0.781-3.674,1.568-6.582,0.832c-1.28-0.325-2.339-0.817-3.222-1.339l4.637,18.702c1.363,0.698,6.572,2.927,17.493,2.927   c10.775,0,15.989-2.169,17.44-2.9L71.688,67.058z M41.219,31.518c0.068,0,0.137-0.009,0.206-0.027   c4.315-1.146,8.198-2.566,11.54-4.218c0.396-0.196,0.559-0.676,0.363-1.072c-0.196-0.396-0.677-0.558-1.072-0.363   c-3.247,1.605-7.029,2.987-11.242,4.106c-0.427,0.113-0.681,0.551-0.567,0.979C40.542,31.281,40.865,31.518,41.219,31.518z    M38.947,51.917c2.289,0,4.15-1.861,4.15-4.149c0-2.288-1.862-4.15-4.15-4.15c-2.288,0-4.148,1.862-4.148,4.15   C34.799,50.055,36.66,51.917,38.947,51.917z M66.088,43.725c2.289,0,4.15-1.861,4.15-4.149c0-2.288-1.862-4.149-4.15-4.149   s-4.15,1.861-4.15,4.149C61.938,41.863,63.799,43.725,66.088,43.725z"></path></g></svg>