<svg xmlns="http://www.w3.org/2000/svg" viewBox="0 0 1000 1000" version="1.1" x="0px" y="0px"><path fill="#000000" opacity="1.00" d=" M 101.36 279.47 C 106.31 278.53 110.98 276.40 116.00 275.87 C 147.82 274.70 179.93 280.90 208.94 294.07 C 236.37 306.29 261.05 324.63 280.71 347.31 C 298.25 367.22 311.66 390.58 320.93 415.39 C 340.00 376.56 371.32 343.92 409.37 323.35 C 443.58 304.75 483.05 295.97 521.91 298.58 C 557.88 300.84 593.31 312.61 623.26 332.68 C 647.26 348.08 667.46 369.03 683.26 392.70 C 688.18 400.38 693.05 408.17 696.57 416.62 C 714.05 365.16 752.95 321.57 801.61 297.53 C 816.68 290.03 832.67 284.41 849.10 280.76 C 867.35 276.46 886.28 274.81 904.97 276.44 C 914.86 280.00 924.86 284.15 933.16 290.78 C 956.38 308.00 969.22 337.34 968.47 365.99 C 968.19 384.78 962.24 403.53 951.30 418.83 C 972.66 436.12 985.44 463.49 985.02 490.97 C 985.46 512.71 977.91 534.60 963.87 551.26 C 982.93 576.07 988.11 610.48 977.86 639.96 C 969.73 664.04 950.98 685.16 926.56 693.29 C 922.06 693.92 918.64 697.54 914.08 697.84 C 903.06 698.85 891.98 699.62 880.94 698.40 C 818.87 695.52 759.60 661.82 723.79 611.31 C 717.07 601.87 711.17 591.87 705.94 581.54 C 694.50 613.43 675.47 642.63 650.56 665.63 C 624.32 690.06 591.66 707.53 556.77 715.81 C 542.81 719.42 528.33 720.10 514.02 721.22 C 490.38 721.44 466.54 718.69 444.05 711.18 C 409.43 699.92 378.07 679.25 353.49 652.47 C 335.18 631.75 320.39 607.76 311.31 581.59 C 296.02 613.17 272.44 640.59 243.83 660.85 C 219.46 678.10 191.32 689.95 161.99 695.49 C 150.42 697.45 138.71 698.15 127.02 698.94 C 118.34 699.45 109.72 697.63 101.04 697.95 C 94.81 698.15 88.80 696.09 83.01 694.05 C 71.49 689.56 60.72 682.74 52.49 673.43 C 23.23 642.55 19.99 590.92 44.67 556.38 C 27.66 538.17 19.26 512.65 20.65 487.92 C 20.79 474.12 24.94 460.52 31.40 448.39 C 37.42 436.36 46.64 426.13 57.38 418.11 C 44.82 399.46 39.45 376.25 42.22 353.96 C 44.25 339.78 48.76 325.77 56.79 313.81 C 67.33 297.95 82.90 284.83 101.36 279.47 M 115.04 308.01 C 105.85 310.20 96.82 314.27 90.46 321.46 C 77.57 333.86 71.63 352.41 73.00 370.05 C 74.25 383.87 79.10 397.82 88.84 407.98 C 92.22 411.32 94.14 416.13 93.52 420.89 C 93.11 425.72 89.62 429.39 87.60 433.59 C 85.65 437.62 81.43 439.55 77.82 441.79 C 64.58 450.09 55.98 464.46 52.60 479.49 C 49.07 500.11 54.12 523.42 70.02 537.90 C 73.98 541.96 79.95 544.07 82.51 549.42 C 85.61 555.25 84.29 562.93 79.54 567.48 C 77.22 569.92 73.97 571.02 70.82 571.95 C 67.94 577.50 64.27 582.71 62.60 588.81 C 55.43 609.20 59.37 633.35 73.08 650.12 C 80.43 657.79 89.27 664.94 100.01 666.81 C 110.04 666.62 120.02 668.81 130.05 667.73 C 138.43 667.16 146.83 666.57 155.14 665.24 C 188.39 659.31 219.88 643.60 244.52 620.47 C 269.99 596.90 288.31 565.83 296.81 532.19 C 264.37 549.53 227.89 559.66 191.05 560.32 C 183.23 560.00 176.58 552.76 176.79 544.96 C 176.57 537.15 183.18 529.98 190.99 529.58 C 201.32 528.87 211.68 528.07 221.88 526.25 C 249.47 520.89 276.13 510.31 299.43 494.52 C 299.72 491.25 300.00 487.98 300.37 484.72 C 272.04 454.47 233.41 434.83 192.94 426.85 C 187.33 425.95 182.40 421.81 180.70 416.36 C 178.47 409.76 181.34 401.90 187.38 398.39 C 191.43 395.75 196.51 395.81 201.05 396.90 C 235.09 404.00 267.83 418.11 295.64 439.08 C 292.46 428.72 289.20 418.32 284.40 408.58 C 272.90 384.62 256.10 363.20 235.48 346.44 C 206.34 322.73 169.53 308.54 131.98 306.89 C 126.32 306.68 120.49 306.05 115.04 308.01 M 871.83 308.39 C 842.50 311.72 814.26 323.15 790.32 340.32 C 760.12 362.17 736.70 393.40 724.96 428.85 C 747.62 415.82 772.16 405.54 797.96 400.81 C 805.77 399.42 813.84 405.22 815.26 412.97 C 817.17 421.02 811.40 429.74 803.29 431.24 C 771.38 438.12 740.97 452.19 715.69 472.93 C 715.84 479.98 717.39 486.91 717.63 493.96 C 717.91 495.83 717.35 498.40 719.49 499.36 C 748.44 518.89 782.46 530.94 817.26 533.83 C 822.91 534.64 827.78 538.96 829.46 544.38 C 831.84 551.33 828.36 559.57 821.81 562.82 C 816.78 565.57 810.92 564.19 805.54 563.73 C 776.35 560.19 747.92 550.86 721.99 537.04 C 728.87 562.00 741.76 585.02 758.07 605.02 C 764.76 613.29 772.85 620.21 780.73 627.30 C 804.25 646.74 832.80 660.13 862.88 665.42 C 878.79 667.55 895.01 669.22 911.00 666.93 C 916.88 663.93 923.17 661.63 928.50 657.65 C 937.37 651.62 943.56 642.39 947.62 632.60 C 954.01 616.35 953.51 597.53 946.23 581.66 C 942.91 574.16 937.59 567.79 932.29 561.62 C 927.84 557.54 926.21 550.75 928.39 545.10 C 930.28 539.54 935.82 536.66 939.36 532.30 C 955.85 512.57 958.80 482.51 945.78 460.20 C 940.42 449.97 931.46 441.92 921.17 436.81 C 911.92 431.91 909.48 417.62 917.49 410.49 C 937.69 392.72 942.97 361.41 931.77 337.30 C 925.57 323.04 913.02 311.55 898.06 307.17 C 889.29 306.35 880.54 307.60 871.83 308.39 M 501.28 329.32 C 481.79 330.02 462.42 334.03 444.29 341.22 C 407.42 355.47 375.63 382.49 355.54 416.53 C 334.42 451.39 326.09 493.52 331.28 533.87 C 334.24 551.65 338.42 569.40 346.33 585.69 C 353.47 601.89 363.56 616.59 374.96 630.07 C 399.91 657.88 433.39 678.28 470.01 686.20 C 480.82 688.80 491.96 689.46 503.01 690.18 C 512.40 690.88 521.75 689.54 531.09 688.78 C 544.64 687.69 557.81 683.92 570.56 679.34 C 603.75 666.98 633.10 644.50 653.57 615.58 C 673.06 588.29 684.92 555.45 686.84 521.95 C 685.31 509.71 683.94 497.40 684.28 485.03 C 684.52 479.50 684.15 473.94 682.66 468.60 C 676.19 441.19 663.50 415.18 645.41 393.57 C 634.46 380.52 621.97 368.64 607.58 359.46 C 576.62 338.30 538.74 327.55 501.28 329.32 Z"></path><path fill="#000000" opacity="1.00" d=" M 149.36 323.51 C 157.44 321.26 166.56 326.82 168.19 335.06 C 170.27 343.13 164.60 352.03 156.43 353.61 C 148.13 355.66 139.03 349.49 137.90 341.01 C 136.44 333.34 141.76 325.26 149.36 323.51 Z"></path><path fill="#000000" opacity="1.00" d=" M 889.41 343.63 C 897.35 340.81 906.85 345.77 909.04 353.90 C 911.81 362.31 905.84 372.12 897.10 373.50 C 888.94 375.26 880.22 369.24 879.01 360.99 C 877.56 353.65 882.28 345.82 889.41 343.63 Z"></path><path fill="#000000" opacity="1.00" d=" M 569.37 363.42 C 578.24 360.66 588.34 367.60 588.87 376.88 C 589.94 385.40 582.63 393.74 574.03 393.74 C 565.88 394.28 558.26 387.27 558.08 379.12 C 557.56 372.07 562.55 365.19 569.37 363.42 Z"></path><path fill="#000000" opacity="1.00" d=" M 449.33 394.49 C 457.86 390.97 468.45 396.87 469.93 405.97 C 471.72 413.97 466.01 422.60 457.96 424.08 C 450.53 425.80 442.38 421.13 440.12 413.86 C 437.39 406.28 441.72 397.14 449.33 394.49 Z"></path><path fill="#000000" opacity="1.00" d=" M 101.38 443.51 C 109.11 441.84 117.44 447.07 119.27 454.76 C 120.97 462.23 117.65 471.19 110.45 474.51 C 103.96 477.78 95.40 475.58 91.26 469.64 C 84.52 460.65 90.10 445.40 101.38 443.51 Z"></path><path fill="#000000" opacity="1.00" d=" M 554.41 445.48 C 562.71 442.62 572.54 448.30 574.13 456.94 C 576.16 465.10 570.25 474.05 561.96 475.40 C 554.18 477.10 545.78 471.72 544.05 463.96 C 541.96 456.31 546.80 447.69 554.41 445.48 Z"></path><path fill="#000000" opacity="1.00" d=" M 773.29 454.38 C 781.53 451.03 791.75 456.40 793.67 465.08 C 796.07 473.56 789.77 483.05 781.04 484.13 C 772.85 485.63 764.36 479.34 763.40 471.08 C 762.24 464.09 766.60 456.73 773.29 454.38 Z"></path><path fill="#000000" opacity="1.00" d=" M 213.44 470.66 C 221.98 468.58 231.24 475.16 232.01 483.92 C 233.27 492.28 226.46 500.66 218.04 501.15 C 209.83 502.12 201.76 495.36 201.31 487.11 C 200.45 479.58 206.02 472.10 213.44 470.66 Z"></path><path fill="#000000" opacity="1.00" d=" M 366.43 482.62 C 376.28 480.11 387.44 488.70 387.02 498.98 C 387.02 505.18 382.82 511.07 377.00 513.15 C 367.37 516.92 355.48 509.21 354.70 498.97 C 353.94 491.60 359.22 484.27 366.43 482.62 Z"></path><path fill="#000000" opacity="1.00" d=" M 878.28 483.39 C 888.75 479.18 901.01 489.11 900.18 500.05 C 899.92 507.20 894.01 513.59 886.91 514.44 C 876.75 516.00 866.66 506.01 868.25 495.82 C 868.94 490.24 872.98 485.27 878.28 483.39 Z"></path><path fill="#000000" opacity="1.00" d=" M 613.32 504.37 C 621.31 501.16 631.20 506.08 633.47 514.37 C 636.22 522.62 630.60 532.28 622.08 533.93 C 614.40 535.86 605.91 530.85 603.85 523.22 C 601.48 515.71 605.86 506.93 613.32 504.37 Z"></path><path fill="#000000" opacity="1.00" d=" M 471.44 512.73 C 479.90 510.05 489.66 516.16 490.90 524.95 C 492.65 533.49 485.81 542.44 477.11 542.97 C 468.93 543.96 460.87 537.30 460.32 529.09 C 459.44 521.87 464.43 514.60 471.44 512.73 Z"></path><path fill="#000000" opacity="1.00" d=" M 413.44 575.60 C 420.85 573.58 429.24 577.99 431.73 585.26 C 434.10 592.33 431.94 601.29 425.38 605.38 C 419.01 609.68 409.60 608.18 404.92 602.08 C 397.83 593.51 402.24 578.07 413.44 575.60 Z"></path><path fill="#000000" opacity="1.00" d=" M 799.37 583.56 C 807.90 580.81 817.76 587.03 818.92 595.91 C 820.59 604.43 813.73 613.29 805.07 613.79 C 797.00 614.75 789.03 608.25 788.34 600.17 C 787.33 592.90 792.31 585.48 799.37 583.56 Z"></path><path fill="#000000" opacity="1.00" d=" M 116.20 603.29 C 125.37 599.66 136.47 607.00 136.72 616.84 C 137.77 627.52 126.08 636.35 116.03 633.59 C 109.20 631.90 104.06 625.07 104.55 618.01 C 104.57 611.13 109.89 605.36 116.20 603.29 Z"></path><path fill="#000000" opacity="1.00" d=" M 896.43 603.76 C 905.33 600.84 915.53 607.75 916.16 617.08 C 917.64 624.52 913.17 632.66 905.84 634.92 C 897.38 638.11 887.16 632.13 885.71 623.23 C 883.66 615.21 888.20 605.93 896.43 603.76 Z"></path><path fill="#000000" opacity="1.00" d=" M 564.37 622.65 C 572.84 619.21 583.30 624.97 584.89 633.96 C 586.91 642.37 580.52 651.49 571.93 652.43 C 563.98 653.76 555.81 647.83 554.57 639.89 C 553.14 632.74 557.51 625.07 564.37 622.65 Z"></path></svg>