<svg xmlns="http://www.w3.org/2000/svg" xmlns:xlink="http://www.w3.org/1999/xlink" version="1.1" x="0px" y="0px" viewBox="0 0 100 100" style="enable-background:new 0 0 100 100;" xml:space="preserve"><g><path d="M94.7840881,55.2083054l-4.1923828-12.3549805c-0.0466919-0.1376343-0.1096802-0.2645264-0.1766968-0.3880615   c-0.010376-0.019104-0.0159912-0.0404053-0.0269165-0.0592041c-0.0982056-0.1704712-0.2177124-0.3224487-0.3493042-0.461792   c-0.0335083-0.0355225-0.0714722-0.0656128-0.1071167-0.0992432c-0.1096191-0.1031494-0.2261353-0.1953735-0.3515015-0.2766113   c-0.0270996-0.0176392-0.0474243-0.0426636-0.0753784-0.0593262L50.4520607,18.2317429   c-0.796875-0.4755859-1.7929688-0.4682617-2.5844727,0.0146484L11.7933674,40.3103561   c-0.0253296,0.0155029-0.043396,0.0386963-0.0680542,0.0549927c-0.1324463,0.0872803-0.2558594,0.1869507-0.3708496,0.2996216   c-0.043396,0.0425415-0.0838623,0.0856323-0.1238403,0.1309814c-0.0926514,0.1051025-0.1748657,0.2196655-0.2503662,0.3422852   c-0.0306396,0.0496826-0.0648804,0.0958252-0.0919189,0.147522c-0.0102539,0.0195312-0.0246582,0.0354004-0.0344238,0.0553589   L5.3397546,52.5657272c-0.5859375,1.1923828-0.1367188,2.6347656,1.0219727,3.2832031l46.331543,25.9521484   c0.3798828,0.2128906,0.8007812,0.3193359,1.2216797,0.3193359c0.453125,0,0.90625-0.1230469,1.3066406-0.3691406   l38.5019493-23.6083984C94.719635,57.5325241,95.1590881,56.3147507,94.7840881,55.2083054z M49.1883888,23.299614   l34.2167931,20.3945312L53.2001076,62.3460007L18.0194416,42.3635788L49.1883888,23.299614z M53.8573341,76.7229538   l-42.9858398-24.078125l3.2993164-6.7168579l37.8486328,21.4971313c0.3828125,0.2177734,0.8085938,0.3261719,1.234375,0.3261719   c0.4560547,0,0.9111328-0.125,1.3134766-0.3730469l32.2990074-19.9449463l2.5418091,7.4908447L53.8573341,76.7229538z"></path><path d="M44.930088,36.9734421l5.0283203-3.1728516l5.2944336,3.5517578   c0.4277344,0.2866211,0.9111328,0.4243164,1.390625,0.4243164c0.8046875,0,1.5957031-0.3886719,2.078125-1.1079102   c0.7695312-1.1464844,0.4628906-2.699707-0.6835938-3.46875l-6.6455078-4.4580078   c-0.8212891-0.550293-1.890625-0.565918-2.7265625-0.0380859l-6.4038086,4.0410156   c-1.1679688,0.7368164-1.5170898,2.2807617-0.7802734,3.4482422C42.2191505,37.3616257,43.7626076,37.7102585,44.930088,36.9734421   z"></path><path d="M57.9286232,55.0110397c0.8046875,0,1.5957031-0.3886719,2.078125-1.1074219   c0.7695312-1.1464844,0.4628906-2.6992188-0.6835938-3.46875l-6.6455078-4.4575195   c-0.8164062-0.5473633-1.875-0.5668945-2.7094727-0.0488281l-6.2416992,3.8676758   c-1.1733398,0.7275391-1.5356445,2.2685547-0.8081055,3.4414062c0.7275391,1.1748047,2.2685547,1.5371094,3.4418945,0.8085938   l4.8710938-3.0185547l5.3066406,3.5595703C56.9657326,54.874321,57.449131,55.0110397,57.9286232,55.0110397z"></path><path d="M55.8788185,45.0261765c0.7890625,1.1328125,2.3466797,1.4106445,3.4804688,0.6230469l4.5742188-3.1855469   l5.2265587,3.5063477c0.4277344,0.2866211,0.9111328,0.4243164,1.390625,0.4243164   c0.8046875,0,1.5957031-0.3886719,2.078125-1.1079102c0.7695312-1.1464844,0.4628906-2.699707-0.6835938-3.46875   l-6.6455078-4.4580078c-0.8564453-0.574707-1.9775352-0.5644531-2.8212852,0.0244141l-5.9765625,4.1616211   C55.3690529,42.3347702,55.089756,43.8928757,55.8788185,45.0261765z"></path><path d="M45.6717873,45.2864304c0.769043-1.1464844,0.4633789-2.699707-0.6835938-3.46875l-6.6455078-4.4580078   c-0.8173828-0.5498047-1.8823242-0.5664062-2.7172852-0.0439453L29.22159,41.3176804   c-1.1708984,0.7319336-1.5268555,2.2739258-0.7954102,3.4448242c0.7319336,1.171875,2.2749023,1.5273438,3.4448242,0.7954102   l5.0307636-3.144043l5.3012695,3.5561523c0.4272461,0.2866211,0.9111328,0.4243164,1.3901367,0.4243164   C44.398838,46.3943405,45.1893654,46.0056686,45.6717873,45.2864304z"></path></g></svg>