<svg xmlns="http://www.w3.org/2000/svg" viewBox="0 0 1000 1000" version="1.1" x="0px" y="0px"><path fill="#000000" opacity="1.00" d=" M 104.88 280.93 C 107.69 277.79 111.81 275.96 116.02 275.87 C 152.84 274.45 189.94 283.17 222.37 300.64 C 250.09 315.51 274.25 336.84 292.68 362.32 C 304.56 378.54 313.85 396.59 320.93 415.38 C 340.00 376.56 371.32 343.92 409.37 323.35 C 443.30 304.91 482.43 296.09 521.00 298.53 C 569.97 301.20 617.49 322.25 652.86 356.12 C 670.62 373.63 686.13 393.77 696.58 416.51 C 707.67 384.11 727.21 354.62 752.45 331.49 C 779.55 306.14 813.68 288.45 849.93 280.58 C 867.31 276.46 885.27 275.10 903.08 276.18 C 908.58 276.46 913.62 280.13 915.92 285.08 C 917.14 287.90 917.15 291.06 918.20 293.94 C 944.68 351.59 957.81 414.79 960.92 477.98 C 964.06 546.56 955.80 616.10 933.03 681.04 C 931.59 685.44 929.91 690.25 925.73 692.80 C 921.79 695.11 917.69 697.73 912.99 697.96 C 906.34 698.38 899.70 699.08 893.04 699.11 C 880.82 698.49 868.58 697.70 856.49 695.72 C 823.38 689.78 791.90 675.43 765.45 654.69 C 740.18 635.48 720.26 609.85 705.90 581.67 C 693.50 616.17 672.18 647.48 644.24 671.26 C 616.92 694.70 583.45 710.86 548.12 717.69 C 539.50 719.35 530.73 719.82 522.01 720.64 C 507.63 722.18 493.16 720.63 478.84 719.19 C 449.79 715.21 421.69 704.72 397.03 688.88 C 385.34 681.98 375.02 673.08 364.95 664.07 C 350.94 651.15 339.36 635.83 329.24 619.76 C 322.23 607.56 315.82 594.92 311.31 581.58 C 296.05 613.14 272.47 640.54 243.90 660.80 C 219.49 678.09 191.31 689.96 161.92 695.50 C 150.03 697.49 137.99 698.22 125.98 698.99 C 119.93 699.33 113.93 698.18 107.90 698.22 C 104.98 699.39 102.25 701.33 98.97 701.27 C 92.11 701.85 85.47 697.19 83.33 690.71 C 68.79 650.93 60.13 609.13 55.93 567.03 C 50.10 506.21 53.70 444.40 67.58 384.86 C 74.94 353.62 85.38 323.09 99.13 294.07 C 101.44 289.85 101.26 284.45 104.88 280.93 M 127.78 306.70 C 122.59 316.87 118.03 327.36 114.03 338.06 C 108.54 353.89 103.16 369.79 99.10 386.07 C 86.85 435.95 82.29 487.65 84.87 538.93 C 87.10 582.36 94.40 625.64 107.84 667.04 C 114.56 667.39 121.28 668.48 128.02 667.88 C 138.42 667.13 148.88 666.55 159.13 664.51 C 183.23 659.56 206.29 649.58 226.34 635.33 C 257.24 613.36 280.90 581.43 292.91 545.47 C 269.46 555.12 244.40 560.72 219.07 561.93 C 211.23 562.10 203.02 563.98 195.40 561.49 C 187.33 558.42 183.32 547.99 187.42 540.34 C 189.73 535.56 194.67 532.08 200.01 531.82 C 214.35 531.59 228.70 530.39 242.87 528.17 C 262.33 524.47 281.20 517.82 298.79 508.72 C 298.90 498.20 299.88 487.71 301.34 477.30 C 298.18 475.75 295.45 473.51 293.15 470.87 C 268.15 445.86 236.24 427.94 202.01 419.17 C 197.40 418.17 192.95 415.64 190.65 411.39 C 186.70 404.83 188.67 395.53 194.97 391.17 C 198.94 388.17 204.30 387.59 209.00 388.99 C 239.19 396.78 268.02 410.37 292.67 429.53 C 277.55 382.54 241.75 342.51 196.57 322.52 C 175.09 312.50 151.44 307.37 127.78 306.70 M 845.39 313.65 C 810.54 323.44 779.16 344.45 756.22 372.39 C 744.35 386.73 735.02 403.06 727.98 420.26 C 752.79 402.35 781.10 389.33 810.87 382.28 C 815.44 381.04 820.58 381.84 824.37 384.76 C 829.61 388.53 831.96 395.78 829.88 401.91 C 828.24 407.29 823.43 411.38 817.93 412.42 C 781.80 420.94 748.14 439.67 722.01 466.06 C 720.17 468.00 718.08 469.68 715.87 471.17 C 715.38 478.33 717.19 485.35 717.63 492.46 C 732.31 499.70 747.93 504.97 763.90 508.53 C 777.75 511.57 791.95 512.32 806.07 513.12 C 812.57 513.45 819.87 511.12 825.59 515.36 C 833.47 520.34 834.69 532.56 827.97 539.01 C 823.14 544.31 815.50 543.80 808.98 544.11 C 800.28 544.00 791.61 543.22 782.94 542.55 C 761.11 540.83 739.75 535.14 719.42 527.13 C 723.17 542.66 728.35 557.93 735.98 572.00 C 744.91 588.09 755.30 603.60 768.66 616.38 C 775.47 622.56 782.12 628.95 789.68 634.24 C 815.48 652.82 846.26 664.98 878.10 667.16 C 887.01 667.92 895.98 668.58 904.91 667.54 C 921.45 619.52 929.38 568.72 930.45 518.00 C 931.47 480.85 928.39 443.60 921.54 407.08 C 914.95 372.64 904.88 338.75 890.06 306.93 C 875.02 307.70 859.88 309.34 845.39 313.65 M 501.28 329.32 C 470.35 330.39 439.80 340.06 413.74 356.69 C 380.77 377.36 355.13 409.22 341.48 445.60 C 334.02 465.20 330.29 486.11 329.74 507.04 C 329.57 510.74 330.93 514.32 330.73 518.02 C 329.67 527.62 331.76 537.17 333.67 546.52 C 338.99 574.39 351.51 600.78 369.19 622.93 C 378.54 635.40 390.33 645.77 402.56 655.33 C 428.38 674.21 459.13 686.94 491.18 689.33 C 501.12 690.23 511.15 690.91 521.09 689.68 C 568.02 687.36 612.97 663.99 643.45 628.51 C 668.52 599.46 683.94 562.27 686.80 524.01 C 687.01 518.57 685.61 513.23 685.13 507.84 C 683.47 499.98 684.56 491.94 684.29 483.99 C 684.96 473.73 681.39 463.91 678.67 454.18 C 667.33 418.83 644.98 387.10 615.32 364.75 C 601.42 354.94 586.67 346.06 570.59 340.33 C 548.56 331.97 524.80 328.27 501.28 329.32 Z"></path><path fill="#000000" opacity="1.00" d=" M 413.41 439.63 C 418.61 438.30 424.33 440.06 428.09 443.84 C 467.44 483.22 506.77 522.62 546.17 561.95 C 552.70 567.96 552.33 579.78 545.28 585.22 C 541.15 588.49 535.35 589.68 530.37 587.78 C 525.22 586.02 521.99 581.40 518.20 577.80 C 485.72 545.32 453.26 512.79 420.77 480.32 C 415.27 474.46 408.97 469.33 403.98 463.02 C 398.11 454.61 403.40 441.66 413.41 439.63 Z"></path><path fill="#000000" opacity="1.00" d=" M 520.10 476.99 C 525.62 475.25 532.01 476.63 536.04 480.86 C 564.67 509.58 593.40 538.21 622.05 566.91 C 627.75 572.30 628.10 582.07 622.86 587.89 C 618.65 593.02 611.02 594.66 604.98 592.05 C 601.62 590.63 599.15 587.83 596.64 585.30 C 569.47 558.17 542.39 530.95 515.15 503.89 C 511.95 500.79 509.39 496.63 509.60 492.04 C 509.20 485.43 513.80 478.93 520.10 476.99 Z"></path></svg>