<svg xmlns="http://www.w3.org/2000/svg" data-name="Слой 1" viewBox="0 0 100 100" x="0px" y="0px"><title>Sweet-stuff_5</title><path d="M79.45,43.93a8.54,8.54,0,0,0-5.94-6.71,8.2,8.2,0,0,0-1.58-5.89A8.88,8.88,0,0,0,66.72,28,9,9,0,0,0,66,21.72a8.15,8.15,0,0,0-6.31-4.23,23,23,0,0,0-1.68-4.09l-.61-1.2c-2.54-5-3.83-7.55-6.43-6.63s-1.92,4-1.29,7c.5,2.36,0,2.81-1.12,3.79a6.49,6.49,0,0,0-2.52,4,9.93,9.93,0,0,0-6.54,3.24,6.08,6.08,0,0,0-1,1.95,11.6,11.6,0,0,0-9.83,12.68,9.66,9.66,0,0,0-7.35,5.24,9.23,9.23,0,0,0,1.48,10.4C26.46,65.55,31.24,80.16,34.54,90c0,.07.06.14.09.21l.06.13a2.48,2.48,0,0,0,.23.38l0,.05a2.48,2.48,0,0,0,.26.28l.11.09.28.2.07,0,.08,0,.07,0a29.45,29.45,0,0,0,13.11,3.07h0a32,32,0,0,0,13.31-3l.05,0a2.5,2.5,0,0,0,.33-.18l.07,0A2.49,2.49,0,0,0,63,91l.08-.1a2.47,2.47,0,0,0,.2-.25l.08-.13a2.47,2.47,0,0,0,.14-.26l.06-.15,0-.08c3.28-9.82,8-24.23,11.59-35.74A10.05,10.05,0,0,0,79.45,43.93ZM59.26,87.37c-.7.28-1.37.54-2,.76l6.15-29.42c1.87-.51,3.79-1.12,5.8-1.86C65.95,67.09,62.12,78.77,59.26,87.37Zm-7.83,2.07,0-28.84a53.36,53.36,0,0,0,6.65-.7L51.87,89.4Zm-5.29-.05L39.81,59.9a59.6,59.6,0,0,0,6.58.7l0,28.82ZM39,87.48C36.13,79,32.33,67.42,29.08,57.17a54.59,54.59,0,0,0,5.37,1.63l6.31,29.4A17.18,17.18,0,0,1,39,87.48Zm13-67.36a8.43,8.43,0,0,0,2.38-3c1.28,3,1.17,4.79.58,5.55a2.34,2.34,0,0,1-2.35.55c-.71-.18-1.26-.58-1.33-1v0l0-.17C50.88,21,50.91,21,51.92,20.12Zm-8.46,6.64c.48-.6,1.68-1.24,3.69-1.47a7,7,0,0,0,4.18,2.8,7.24,7.24,0,0,0,7.47-2.3,6.92,6.92,0,0,0,1.36-3,2.85,2.85,0,0,1,1.47,1.31,4.5,4.5,0,0,1-.51,4.48c-1.63,2.38-6.48,3.4-11.54,2.42-3.77-.73-6.08-2.32-6.33-3.46A.81.81,0,0,1,43.45,26.76Zm-8.75,6.66a6.81,6.81,0,0,1,4.46-2.88c1.55,2.52,4.92,4.46,9.46,5.33a24.66,24.66,0,0,0,4.63.44c4.06,0,8.15-1,10.76-3.55a4.43,4.43,0,0,1,3.92,1.57A3.47,3.47,0,0,1,68.15,38c-.72,1.48-4.19,6.33-18.65,6.65-8.4.19-14.16-1.63-15.4-4.86A7.17,7.17,0,0,1,34.71,33.42Zm-8.9,12.29a4.76,4.76,0,0,1,4.4-2.57c2.65,4.26,9,6.56,18.15,6.56h1.26c13.75-.3,19.56-4.47,22-7.79a3.64,3.64,0,0,1,2.92,3c.38,1.94-.42,4.55-2.39,5.4h0c-9,3.86-15.6,5.36-23.37,5.36-7.57,0-16.81-2.12-22.19-5.07A4.27,4.27,0,0,1,25.81,45.71Z"></path></svg>