<svg xmlns="http://www.w3.org/2000/svg" viewBox="0 0 1000 1000" version="1.1" x="0px" y="0px"><path fill="#000000" opacity="1.00" d=" M 91.92 282.90 C 98.29 279.70 105.42 278.79 112.10 276.51 C 113.38 276.14 114.69 275.93 116.02 275.87 C 149.32 274.63 182.91 281.53 212.98 295.92 C 239.22 308.30 262.76 326.33 281.63 348.37 C 298.73 368.03 311.82 391.01 320.92 415.38 C 337.99 380.78 364.67 350.93 397.38 330.43 C 432.31 308.15 474.10 296.79 515.51 298.26 C 553.44 299.46 591.04 311.30 622.68 332.27 C 647.90 348.45 669.10 370.57 685.23 395.77 C 689.42 402.43 693.42 409.25 696.58 416.47 C 707.71 384.06 727.25 354.54 752.53 331.42 C 779.62 306.10 813.72 288.45 849.94 280.57 C 867.91 276.39 886.52 274.87 904.92 276.41 C 914.84 280.02 924.91 284.14 933.22 290.84 C 955.59 307.43 968.33 335.36 968.47 362.98 C 968.80 382.77 962.83 402.71 951.29 418.83 C 964.73 429.64 974.61 444.47 980.24 460.72 C 988.93 486.94 986.04 516.98 971.59 540.65 C 969.21 544.37 966.45 547.82 963.87 551.38 C 982.82 575.82 987.96 609.82 978.17 639.02 C 969.81 664.81 949.14 687.43 922.52 694.49 C 919.83 695.86 917.25 697.71 914.13 697.84 C 907.10 698.38 900.07 699.04 893.03 699.11 C 880.78 698.48 868.52 697.70 856.42 695.70 C 825.41 690.13 795.83 677.19 770.49 658.52 C 743.01 638.70 720.88 611.77 705.95 581.40 C 694.60 613.34 675.51 642.55 650.62 665.57 C 623.70 690.67 590.01 708.38 554.10 716.45 C 542.94 719.17 531.44 719.78 520.04 720.81 C 509.65 721.83 499.19 721.04 488.82 720.18 C 450.69 717.32 414.02 702.29 383.41 679.65 C 369.09 668.42 355.38 656.17 344.46 641.53 C 330.18 623.58 318.91 603.23 311.31 581.60 C 296.76 611.67 274.66 637.92 247.93 657.90 C 216.93 680.80 179.53 695.48 140.96 697.96 C 136.34 698.30 131.72 698.61 127.10 698.94 C 119.06 699.44 111.08 697.87 103.05 697.92 C 94.57 698.50 86.38 695.50 78.70 692.27 C 63.28 685.51 50.39 673.64 41.73 659.27 C 22.78 628.31 23.52 586.08 44.68 556.39 C 34.98 546.04 28.10 533.28 24.22 519.68 C 21.75 510.39 19.90 500.73 20.71 491.09 C 20.12 477.72 23.72 464.40 29.37 452.36 C 35.57 438.76 45.38 426.97 57.39 418.10 C 45.95 401.16 40.51 380.45 41.66 360.09 C 43.18 337.88 51.94 315.74 68.04 300.07 C 74.68 292.74 83.15 287.34 91.92 282.90 M 105.99 310.88 C 97.01 314.14 90.07 321.08 84.36 328.50 C 67.08 352.11 69.50 387.99 89.80 409.08 C 94.25 413.91 94.91 421.78 91.27 427.26 C 89.77 429.54 88.52 431.97 87.17 434.34 C 84.43 438.99 78.89 440.55 74.87 443.78 C 63.45 452.18 55.99 465.20 52.74 478.84 C 48.93 499.63 53.97 523.28 70.03 537.91 C 73.99 541.99 79.98 544.07 82.52 549.44 C 85.61 555.27 84.29 562.94 79.53 567.49 C 77.21 569.91 73.99 571.05 70.83 571.91 C 67.98 577.50 64.25 582.69 62.59 588.83 C 58.62 600.14 58.02 612.58 60.71 624.25 C 63.53 636.23 69.16 648.11 79.09 655.79 C 84.91 661.19 92.10 665.32 99.94 666.82 C 106.30 666.79 112.64 667.38 118.98 667.88 C 124.82 668.44 130.65 667.59 136.48 667.28 C 174.15 665.27 210.68 649.75 239.21 625.25 C 267.37 601.11 287.75 568.16 296.81 532.19 C 264.36 549.55 227.87 559.65 191.02 560.32 C 183.22 559.98 176.60 552.78 176.79 544.99 C 176.56 537.19 183.14 530.01 190.94 529.58 C 201.29 528.88 211.66 528.06 221.89 526.25 C 249.47 520.89 276.13 510.30 299.42 494.52 C 299.71 491.26 300.01 488.00 300.37 484.76 C 295.27 478.79 289.24 473.73 283.19 468.77 C 259.20 448.75 230.04 435.39 199.71 428.31 C 194.90 427.05 189.47 426.92 185.54 423.49 C 180.06 419.11 178.36 410.82 181.62 404.62 C 184.64 398.36 192.13 394.93 198.87 396.50 C 233.71 403.36 267.22 417.68 295.63 439.07 C 293.55 431.81 291.00 424.69 288.43 417.60 C 272.32 378.68 242.33 345.37 204.62 326.38 C 180.73 313.93 153.93 307.21 127.00 306.70 C 119.73 305.96 112.72 308.51 105.99 310.88 M 857.91 310.51 C 831.57 316.10 806.39 327.57 785.19 344.21 C 757.42 365.74 736.04 395.47 724.96 428.85 C 747.35 415.94 771.60 405.83 797.06 400.95 C 804.43 399.23 812.49 403.95 814.76 411.14 C 817.36 418.21 813.76 426.82 806.93 429.98 C 801.69 432.14 795.91 432.50 790.59 434.47 C 763.30 441.82 737.66 455.07 715.73 472.89 C 715.94 481.38 717.80 489.74 717.93 498.25 C 747.17 518.49 781.84 530.87 817.28 533.83 C 823.15 534.67 828.18 539.33 829.66 545.06 C 831.65 551.88 828.10 559.73 821.74 562.85 C 816.53 565.66 810.48 564.10 804.92 563.66 C 775.95 560.05 747.74 550.78 722.00 537.03 C 728.15 559.48 739.23 580.32 753.21 598.85 C 761.39 610.17 771.81 619.57 782.34 628.64 C 805.59 647.35 833.53 660.28 862.95 665.43 C 878.85 667.58 895.03 669.16 911.01 666.96 C 919.02 663.05 927.47 659.59 933.97 653.24 C 955.92 632.10 958.06 594.44 939.49 570.48 C 936.90 567.39 934.74 563.95 931.84 561.14 C 927.12 556.59 926.14 548.93 929.21 543.20 C 931.94 538.39 937.02 535.60 940.29 531.21 C 947.12 522.48 951.58 511.85 953.19 500.89 C 957.26 476.26 945.25 448.73 922.38 437.53 C 914.73 433.95 910.56 424.33 913.59 416.37 C 915.40 411.06 920.64 408.27 923.81 403.91 C 941.98 381.79 942.06 347.18 924.20 324.86 C 917.50 316.56 908.31 310.16 898.04 307.16 C 884.59 306.32 871.17 308.40 857.91 310.51 M 501.23 329.32 C 474.89 330.19 448.91 337.45 425.63 349.72 C 393.94 366.56 367.35 393.05 350.85 424.96 C 332.75 458.59 326.29 498.16 331.59 535.90 C 333.87 547.60 335.99 559.43 340.18 570.63 C 346.73 589.01 356.10 606.44 368.26 621.73 C 377.81 634.70 389.93 645.48 402.57 655.34 C 428.40 674.21 459.14 686.94 491.20 689.33 C 500.10 690.07 509.08 690.88 518.00 689.95 C 528.40 688.97 538.91 688.49 549.06 685.85 C 586.00 677.23 619.94 656.42 644.38 627.41 C 667.35 600.36 682.04 566.41 686.11 531.15 C 686.56 526.82 687.27 522.43 686.51 518.10 C 684.58 506.17 684.07 494.05 684.32 481.99 C 684.60 472.68 681.31 463.81 678.91 454.95 C 667.66 419.28 645.18 387.24 615.29 364.72 C 601.81 355.25 587.59 346.58 572.07 340.88 C 549.61 332.15 525.30 328.23 501.23 329.32 Z"></path><path fill="#000000" opacity="1.00" d=" M 892.45 336.63 C 900.37 333.33 910.29 338.02 912.74 346.24 C 915.60 354.31 910.40 363.96 902.08 365.96 C 894.11 368.34 885.00 363.06 883.10 354.98 C 881.00 347.63 885.28 339.26 892.45 336.63 Z"></path><path fill="#000000" opacity="1.00" d=" M 97.50 339.71 C 105.97 337.07 115.69 343.20 116.91 351.99 C 118.63 360.52 111.79 369.44 103.10 369.97 C 94.96 370.95 86.92 364.34 86.32 356.17 C 85.41 348.90 90.44 341.56 97.50 339.71 Z"></path><path fill="#000000" opacity="1.00" d=" M 916.40 462.53 C 924.08 461.07 932.21 466.38 933.94 474.01 C 936.68 484.11 927.34 495.19 916.97 494.44 C 909.72 494.28 903.27 488.24 902.44 481.08 C 901.17 472.50 908.08 464.03 916.40 462.53 Z"></path><path fill="#000000" opacity="1.00" d=" M 80.45 472.79 C 88.84 470.20 98.46 476.21 99.79 484.88 C 101.63 493.45 94.80 502.50 86.06 503.05 C 77.86 504.08 69.77 497.40 69.22 489.16 C 68.35 481.92 73.40 474.61 80.45 472.79 Z"></path><path fill="#000000" opacity="1.00" d=" M 523.44 483.45 C 528.28 477.36 537.91 476.18 544.15 480.79 C 550.65 485.16 552.68 494.78 548.43 501.38 C 545.92 505.20 543.01 508.74 540.71 512.69 C 536.85 519.20 532.14 525.26 529.40 532.38 C 526.29 539.68 517.00 543.22 509.74 540.17 C 506.34 538.93 503.81 536.22 501.76 533.35 C 496.17 525.69 489.75 518.69 483.23 511.82 C 477.91 506.07 478.27 496.29 483.86 490.85 C 488.79 485.64 497.46 484.67 503.38 488.77 C 507.08 491.40 509.87 495.04 512.93 498.34 C 516.17 493.20 519.70 488.24 523.44 483.45 Z"></path><path fill="#000000" opacity="1.00" d=" M 89.34 599.50 C 97.32 596.57 106.93 601.54 109.14 609.74 C 111.78 617.88 106.32 627.38 97.95 629.15 C 90.02 631.29 81.17 625.93 79.34 617.95 C 77.24 610.40 81.88 601.86 89.34 599.50 Z"></path><path fill="#000000" opacity="1.00" d=" M 911.48 599.73 C 920.18 597.16 929.99 603.84 930.74 612.88 C 932.03 621.47 924.74 630.04 916.05 630.10 C 908.09 630.66 900.55 624.06 900.03 616.11 C 899.18 608.80 904.35 601.47 911.48 599.73 Z"></path></svg>