<svg xmlns="http://www.w3.org/2000/svg" xmlns:xlink="http://www.w3.org/1999/xlink" version="1.1" x="0px" y="0px" viewBox="0 0 100 100" style="enable-background:new 0 0 100 100;" xml:space="preserve"><path d="M82.6269531,49.5610352c4.2998047-4.2988281,6.6669922-10.0146484,6.6669922-16.0942383  s-2.3671875-11.7954102-6.6669922-16.0942383c-6.161377-6.161377-15.0025635-8.0357056-22.8046265-5.6410522  c-0.1107178,0.0211792-0.21698,0.053772-0.3137207,0.1094971c-3.3169556,1.0712891-6.4403687,2.9017944-9.0701294,5.5315552  c-6.1650391,6.1647339-8.0369873,15.0120239-5.6368408,22.8166504c0.0216675,0.1045532,0.0510864,0.2056885,0.1038818,0.2976074  c0.973999,3.0177612,2.5983887,5.861145,4.8619385,8.331665L10.9990234,87.5869141  c-0.390625,0.390625-0.390625,1.0234375,0,1.4140625c0.1953125,0.1953125,0.4511719,0.2929688,0.7070312,0.2929688  s0.5117188-0.0976562,0.7070312-0.2929688l38.7684937-38.7684937c1.473938,1.3503418,3.0690918,2.4962158,4.7689209,3.3875122  c0.0137939,0.0082397,0.0290527,0.0125122,0.0432129,0.0200195c3.2901001,1.7163086,6.9138184,2.5767822,10.5385132,2.5767822  c2.2678223,0,4.5327759-0.3461304,6.7184448-1.0177002c0.0905762-0.0181274,0.1750488-0.0479126,0.2565918-0.0895386  C76.8430176,54.0408325,79.9841309,52.2038574,82.6269531,49.5610352z M81.2128906,48.1469727  c-2.3758545,2.3758545-5.1939697,4.0342407-8.1871948,5.0155029c-8.1114502-2.6050415-9.7857666-7.2548218-9.7385864-10.723999  c0.0361328-2.7338867,1.0964966-5.1350708,2.0879517-6.5823364c0.2993774,2.3094482,1.5147705,5.322937,3.7733765,7.6433716  c1.5009766,1.5424805,4.1835938,3.449707,8.2685547,3.4492188c1.6835938,0,3.6112671-0.3357544,5.7859497-1.1424561  C82.5957031,46.6231079,81.9458618,47.4141235,81.2128906,48.1469727z M51.8876953,48.1123047  c-0.0490723-0.0490723-0.1104736-0.0736694-0.1662598-0.1104126c-2.3033447-2.3469238-3.9238281-5.1102905-4.8856201-8.0466309  c2.6032715-8.107666,7.2123413-9.7711792,10.7227783-9.7350464c2.7330322,0.0367432,5.1332397,1.0966797,6.5803833,2.0880737  c-2.3098145,0.2994995-5.3222046,1.5158691-7.6419067,3.7747192c-2.177063,2.1184082-5.0701904,6.5975342-2.3122559,14.0431519  c-0.7585449-0.5626831-1.4943237-1.1682739-2.1867676-1.8477173C51.9613037,48.2227173,51.9367065,48.1613159,51.8876953,48.1123047  z M86.2362671,26.9499512c-2.604187,8.1296387-7.2788086,9.7749634-10.7313843,9.760498  c-2.7346802-0.0367432-5.1357422-1.0974731-6.5828247-2.0891724c2.3098145-0.2993774,5.3236694-1.5144653,7.6443481-3.772644  c2.1760254-2.1186523,5.0696411-6.597168,2.3130493-14.0419922c0.8105469,0.6011963,1.598877,1.2454834,2.3334351,1.9799805  C83.5431519,21.1165771,85.2337646,23.9091187,86.2362671,26.9499512z M51.8525391,18.7866211  c2.3769531-2.376709,5.1964111-4.0355225,8.1911011-5.0164795c8.1062622,2.6053467,9.7799072,7.2537231,9.7327271,10.7220459  c-0.0361328,2.734375-1.0968628,5.1359253-2.0884399,6.5830688c-0.2993164-2.3099365-1.5147705-5.3245239-3.7738647-7.6450806  c-2.1182251-2.1760254-6.5943604-5.069519-14.039978-2.3123779C50.4748535,20.3080444,51.1187134,19.5204468,51.8525391,18.7866211z  "></path></svg>